<?xml version="1.0" standalone="yes"?>
<svg xmlns="http://www.w3.org/2000/svg" width="216" height="225">
<path style="fill:#fcfcfc; stroke:none;" d="M0 0L0 225L216 225L216 0L0 0z"/>
<path style="fill:#a1a1a1; stroke:none;" d="M104 41L105 42L104 41z"/>
<path style="fill:#606060; stroke:none;" d="M105.667 41.3333L106.333 41.6667L105.667 41.3333z"/>
<path style="fill:#303030; stroke:none;" d="M107.667 41.3333L108.333 41.6667L107.667 41.3333z"/>
<path style="fill:#606060; stroke:none;" d="M109.667 41.3333L110.333 41.6667L109.667 41.3333z"/>
<path style="fill:#a1a1a1; stroke:none;" d="M111 41L112 42L111 41z"/>
<path style="fill:#606060; stroke:none;" d="M101 42L102 43L101 42z"/>
<path style="fill:#303030; stroke:none;" d="M102 42L103 43L102 42z"/>
<path style="fill:#030303; stroke:none;" d="M92 73L95 74C93.2856 82.2577 102.266 91.6392 110.961 88.3927C117.644 85.8975 124.48 72.9173 124.771 66.0394C125.389 51.4066 109.769 30.4413 95.3943 47.108C89.4914 53.9522 92.0783 64.8418 92 73z"/>
<path style="fill:#303030; stroke:none;" d="M113 42L114 43L113 42z"/>
<path style="fill:#a1a1a1; stroke:none;" d="M114 42L115 43L114 42z"/>
<path style="fill:#606060; stroke:none;" d="M99 43L100 44L99 43z"/>
<path style="fill:#303030; stroke:none;" d="M115 43L116 44L115 43z"/>
<path style="fill:#a1a1a1; stroke:none;" d="M116 43L117 44L116 43M164 43L164 44L167 44L164 43z"/>
<path style="fill:#606060; stroke:none;" d="M167.667 43.3333L168.333 43.6667L167.667 43.3333z"/>
<path style="fill:#303030; stroke:none;" d="M169 43L170 44L169 43z"/>
<path style="fill:#606060; stroke:none;" d="M170 43L171 44L170 43z"/>
<path style="fill:#a1a1a1; stroke:none;" d="M171 43L171 44L174 44L171 43M97 44L98 45L97 44z"/>
<path style="fill:#606060; stroke:none;" d="M117 44L118 45L117 44z"/>
<path style="fill:#a1a1a1; stroke:none;" d="M158 44L159 45L158 44z"/>
<path style="fill:#606060; stroke:none;" d="M159.667 44.3333L160.333 44.6667L159.667 44.3333z"/>
<path style="fill:#303030; stroke:none;" d="M161.667 44.3333L162.333 44.6667L161.667 44.3333z"/>
<path style="fill:#030303; stroke:none;" d="M159 59L160 59L161 46L163 46L162 59L164 59L164 50L165 56L170 57L172 53L171 55C178.947 52.5857 173.869 48.2196 170 45C176.045 46.9123 179.878 51.0514 174 56L177 58L176 61L179 63L177 62L191 87L184 92L184 93L205 92C204.998 72.4451 193.88 59.0861 179.406 46.7029C175.621 43.4651 163.52 41.8385 160.179 46.5139C157.959 49.6209 159 55.3813 159 59z"/>
<path style="fill:#303030; stroke:none;" d="M175 44L176 45L175 44z"/>
<path style="fill:#606060; stroke:none;" d="M176 44L177 45L176 44z"/>
<path style="fill:#a1a1a1; stroke:none;" d="M177 44L178 45L177 44z"/>
<path style="fill:#303030; stroke:none;" d="M96 45L97 46L96 45M118 45L119 46L118 45M156 45L155 47L156 45z"/>
<path style="fill:#030303; stroke:none;" d="M155 58L157 58L159 45C154.018 47.7469 155 52.9081 155 58z"/>
<path style="fill:#303030; stroke:none;" d="M159 45L160 46L159 45z"/>
<path style="fill:#606060; stroke:none;" d="M170.667 45.3333L171.333 45.6667L170.667 45.3333z"/>
<path style="fill:#303030; stroke:none;" d="M178 45L179 46L178 45M95 46L96 47L95 46z"/>
<path style="fill:#a1a1a1; stroke:none;" d="M120 46L121 47L120 46M158.333 46.6667L158.667 47.3333L158.333 46.6667z"/>
<path style="fill:#606060; stroke:none;" d="M159 46L160 47L159 46z"/>
<path style="fill:#303030; stroke:none;" d="M161 46L161 48L163 46L161 46M170 46L171 47L170 46z"/>
<path style="fill:#fcfcfc; stroke:none;" d="M171.667 46.3333L172.333 46.6667L171.667 46.3333z"/>
<path style="fill:#a1a1a1; stroke:none;" d="M173 46L173 47L177 48L177 47L173 46z"/>
<path style="fill:#606060; stroke:none;" d="M94 47L95 48L94 47M162 47L161 51L162 47z"/>
<path style="fill:#fcfcfc; stroke:none;" d="M175 47L175 55L176 55L175 47z"/>
<path style="fill:#606060; stroke:none;" d="M180 47L181 48L180 47z"/>
<path style="fill:#a1a1a1; stroke:none;" d="M93 48L94 49L93 48z"/>
<path style="fill:#303030; stroke:none;" d="M121 48L122 49L121 48z"/>
<path style="fill:#a1a1a1; stroke:none;" d="M154 48L154 57L155 57L154 48z"/>
<path style="fill:#606060; stroke:none;" d="M158 48L159 49L158 48z"/>
<path style="fill:#303030; stroke:none;" d="M175 48L176 49L175 48M93 49L94 50L93 49z"/>
<path style="fill:#a1a1a1; stroke:none;" d="M122 49L123 50L122 49M158 49L159 50L158 49z"/>
<path style="fill:#303030; stroke:none;" d="M177 49L178 50L177 49M181 49L182 50L181 49z"/>
<path style="fill:#a1a1a1; stroke:none;" d="M92 50L93 51L92 50z"/>
<path style="fill:#303030; stroke:none;" d="M122 50L123 51L122 50z"/>
<path style="fill:#606060; stroke:none;" d="M158 50L157 58L158 58L158 50z"/>
<path style="fill:#303030; stroke:none;" d="M164 50L165 55L166 55L166 50L164 50z"/>
<path style="fill:#a1a1a1; stroke:none;" d="M177 50L177 53L178 53L177 50z"/>
<path style="fill:#606060; stroke:none;" d="M182 50L183 51L182 50z"/>
<path style="fill:#a1a1a1; stroke:none;" d="M53.6667 51.3333L54.3333 51.6667L53.6667 51.3333z"/>
<path style="fill:#303030; stroke:none;" d="M92 51L93 52L92 51z"/>
<path style="fill:#a1a1a1; stroke:none;" d="M161 51L161 55L162 55L161 51z"/>
<path style="fill:#606060; stroke:none;" d="M165 51L166 52L165 51M183 51L184 52L183 51z"/>
<path style="fill:#a1a1a1; stroke:none;" d="M47 52L48 53L47 52z"/>
<path style="fill:#606060; stroke:none;" d="M48.6667 52.3333L49.3333 52.6667L48.6667 52.3333z"/>
<path style="fill:#303030; stroke:none;" d="M50.6667 52.3333L51.3333 52.6667L50.6667 52.3333z"/>
<path style="fill:#030303; stroke:none;" d="M50 68L47 69L47 70L52 70L52 62L54 62L54 67L56 60L57 60L56 68C62.4276 64.3911 60.8459 53.6906 52.9599 52.6034C42.828 51.2066 23.5155 60.7968 41.2593 67.4012C43.8735 68.3743 47.2361 67.691 50 68z"/>
<path style="fill:#303030; stroke:none;" d="M55 52L56 53L55 52M157 52L157 57L158 57L157 52z"/>
<path style="fill:#a1a1a1; stroke:none;" d="M184 52L185 53L184 52M42 53L43 54L42 53z"/>
<path style="fill:#606060; stroke:none;" d="M43 53L44 54L43 53z"/>
<path style="fill:#303030; stroke:none;" d="M44 53L45 54L44 53z"/>
<path style="fill:#a1a1a1; stroke:none;" d="M56 53L57 54L56 53M91.3333 53.6667L91.6667 54.3333L91.3333 53.6667z"/>
<path style="fill:#606060; stroke:none;" d="M164 53L164 57L165 57L164 53M169 53L170 54L169 53z"/>
<path style="fill:#a1a1a1; stroke:none;" d="M170 53L171 57L172 56L170 53z"/>
<path style="fill:#303030; stroke:none;" d="M171 53L172 54L171 53z"/>
<path style="fill:#606060; stroke:none;" d="M175 53L176 54L175 53z"/>
<path style="fill:#303030; stroke:none;" d="M177 53L178 54L177 53z"/>
<path style="fill:#a1a1a1; stroke:none;" d="M185 53L186 54L185 53M37 54L38 55L37 54z"/>
<path style="fill:#606060; stroke:none;" d="M38 54L39 55L38 54z"/>
<path style="fill:#303030; stroke:none;" d="M39 54L40 55L39 54M160 54L160 58L161 58L160 54z"/>
<path style="fill:#fcfcfc; stroke:none;" d="M170 54L171 55L170 54z"/>
<path style="fill:#606060; stroke:none;" d="M174 54L175 55L174 54M176 54L177 55L176 54z"/>
<path style="fill:#a1a1a1; stroke:none;" d="M186 54L187 55L186 54z"/>
<path style="fill:#606060; stroke:none;" d="M34 55L35 56L34 55z"/>
<path style="fill:#303030; stroke:none;" d="M35 55L36 56L35 55z"/>
<path style="fill:#606060; stroke:none;" d="M57 55L58 56L57 55M91.3333 55.6667L91.6667 56.3333L91.3333 55.6667z"/>
<path style="fill:#303030; stroke:none;" d="M122.333 55.6667L122.667 56.3333L122.333 55.6667z"/>
<path style="fill:#606060; stroke:none;" d="M161 55L161 58L162 58L161 55M172 55L173 56L172 55z"/>
<path style="fill:#a1a1a1; stroke:none;" d="M173 55L173 57L175 55L173 55z"/>
<path style="fill:#303030; stroke:none;" d="M175 55L176 56L175 55z"/>
<path style="fill:#a1a1a1; stroke:none;" d="M187 55L188 56L187 55M32 56L33 57L32 56z"/>
<path style="fill:#303030; stroke:none;" d="M33 56L31 57L31 58L33 56z"/>
<path style="fill:#a1a1a1; stroke:none;" d="M58 56L59 57L58 56z"/>
<path style="fill:#303030; stroke:none;" d="M164 57L164 58L167 58L164 57z"/>
<path style="fill:#a1a1a1; stroke:none;" d="M188 56L189 57L188 56M91 57L91 60L92 60L91 57z"/>
<path style="fill:#606060; stroke:none;" d="M122 57L123 58L122 57z"/>
<path style="fill:#a1a1a1; stroke:none;" d="M158 57L159 58L158 57M165 57L166 58L165 57M167.667 57.3333L168.333 57.6667L167.667 57.3333z"/>
<path style="fill:#303030; stroke:none;" d="M174 57L175 58L174 57z"/>
<path style="fill:#606060; stroke:none;" d="M189 57L190 58L189 57M30 58L31 59L30 58z"/>
<path style="fill:#030303; stroke:none;" d="M31 58C21.4459 69.2387 7.86776 93.4793 16 108L17 108C11.8105 93.7568 22.0524 79.498 31 69L22.9691 83L20 94L20 95C22.6798 98.519 21.983 103.261 24.7029 106.89C28.2131 111.574 33.6613 110.626 35.3117 104.985C37.316 98.1334 40.5052 67.1903 31 69L31 58z"/>
<path style="fill:#a1a1a1; stroke:none;" d="M32 58L32 61L33 61L32 58M59 58L60 59L59 58z"/>
<path style="fill:#303030; stroke:none;" d="M122.333 58.6667L122.667 59.3333L122.333 58.6667M156 58L157 59L156 58z"/>
<path style="fill:#a1a1a1; stroke:none;" d="M160 58L161 59L160 58M164 58L165 59L164 58M174 58L175 59L174 58z"/>
<path style="fill:#303030; stroke:none;" d="M176 58L175 60L176 58z"/>
<path style="fill:#a1a1a1; stroke:none;" d="M178 58L181 61L178 58z"/>
<path style="fill:#606060; stroke:none;" d="M190 58L191 59L190 58z"/>
<path style="fill:#a1a1a1; stroke:none;" d="M29 59L30 60L29 59z"/>
<path style="fill:#606060; stroke:none;" d="M176 59L177 60L176 59z"/>
<path style="fill:#303030; stroke:none;" d="M178 59L179 60L178 59z"/>
<path style="fill:#606060; stroke:none;" d="M191 59L192 60L191 59z"/>
<path style="fill:#a1a1a1; stroke:none;" d="M28 60L29 61L28 60z"/>
<path style="fill:#303030; stroke:none;" d="M31.3333 60.6667L31.6667 61.3333L31.3333 60.6667M56 60L58 62L56 60M60 60L61 61L60 60z"/>
<path style="fill:#a1a1a1; stroke:none;" d="M175 60L176 61L175 60M177 60L178 61L177 60z"/>
<path style="fill:#303030; stroke:none;" d="M192 60L193 61L192 60z"/>
<path style="fill:#fcfcfc; stroke:none;" d="M32 61L34 64L32 61M56 61L57 62L56 61z"/>
<path style="fill:#a1a1a1; stroke:none;" d="M61 61L62 62L61 61M91 61L92 62L91 61z"/>
<path style="fill:#303030; stroke:none;" d="M123 61L124 62L123 61z"/>
<path style="fill:#a1a1a1; stroke:none;" d="M124 61L125 62L124 61z"/>
<path style="fill:#303030; stroke:none;" d="M176 61L177 62L176 61z"/>
<path style="fill:#606060; stroke:none;" d="M177.667 61.3333L178.333 61.6667L177.667 61.3333z"/>
<path style="fill:#fcfcfc; stroke:none;" d="M180 61L182 63L180 61z"/>
<path style="fill:#303030; stroke:none;" d="M181 61L182 62L181 61z"/>
<path style="fill:#606060; stroke:none;" d="M182.667 61.3333L183.333 61.6667L182.667 61.3333z"/>
<path style="fill:#303030; stroke:none;" d="M193 61L194 62L193 61z"/>
<path style="fill:#606060; stroke:none;" d="M27 62L28 63L27 62z"/>
<path style="fill:#a1a1a1; stroke:none;" d="M33 62L34 63L33 62z"/>
<path style="fill:#606060; stroke:none;" d="M52 62L54 64L52 62z"/>
<path style="fill:#303030; stroke:none;" d="M53 62L54 63L53 62z"/>
<path style="fill:#606060; stroke:none;" d="M56 62L57 63L56 62z"/>
<path style="fill:#a1a1a1; stroke:none;" d="M57 62L57 65L58 65L57 62z"/>
<path style="fill:#303030; stroke:none;" d="M61.3333 62.6667L61.6667 63.3333L61.3333 62.6667M91 62L92 63L91 62z"/>
<path style="fill:#a1a1a1; stroke:none;" d="M125 62L126 63L125 62M178 62L179 63L178 62z"/>
<path style="fill:#030303; stroke:none;" d="M182 62L184 64L182 62z"/>
<path style="fill:#a1a1a1; stroke:none;" d="M183 62L184 63L183 62M26 63L27 64L26 63z"/>
<path style="fill:#606060; stroke:none;" d="M32 63L33 64L32 63z"/>
<path style="fill:#a1a1a1; stroke:none;" d="M33 64L33 65L36 65L34 68C36.84 68.0736 39.0177 69.3827 39 66L38 66L39 68L36 67L38 64L35 63L33 64z"/>
<path style="fill:#303030; stroke:none;" d="M35 63L36 64L35 63z"/>
<path style="fill:#fcfcfc; stroke:none;" d="M52 63L53 64L52 63M57 63L58 64L57 63z"/>
<path style="fill:#a1a1a1; stroke:none;" d="M90 63L90 66L91 66L90 63z"/>
<path style="fill:#606060; stroke:none;" d="M125.333 63.6667L125.667 64.3333L125.333 63.6667z"/>
<path style="fill:#303030; stroke:none;" d="M177 63L178 64L177 63z"/>
<path style="fill:#a1a1a1; stroke:none;" d="M179.333 63.6667L179.667 64.3333L179.333 63.6667z"/>
<path style="fill:#606060; stroke:none;" d="M181 63L180 65L181 63z"/>
<path style="fill:#a1a1a1; stroke:none;" d="M182 63L183 64L182 63z"/>
<path style="fill:#fcfcfc; stroke:none;" d="M184 63L185 64L184 63z"/>
<path style="fill:#303030; stroke:none;" d="M184 64L184 65L187 65L184 64M32.3333 64.6667L32.6667 65.3333L32.3333 64.6667z"/>
<path style="fill:#606060; stroke:none;" d="M34.3333 64.6667L34.6667 65.3333L34.3333 64.6667z"/>
<path style="fill:#fcfcfc; stroke:none;" d="M36 64L37 65L36 64z"/>
<path style="fill:#606060; stroke:none;" d="M38 64L37 66L38 64z"/>
<path style="fill:#a1a1a1; stroke:none;" d="M52 64L54 67L54 64L52 64z"/>
<path style="fill:#303030; stroke:none;" d="M58 64L59 65L58 64z"/>
<path style="fill:#a1a1a1; stroke:none;" d="M61 64L62 65L61 64M177 64L178 65L177 64z"/>
<path style="fill:#030303; stroke:none;" d="M181 64L183 67L181 64z"/>
<path style="fill:#fcfcfc; stroke:none;" d="M182 64L184 66L182 64z"/>
<path style="fill:#606060; stroke:none;" d="M183 64L184 65L183 64z"/>
<path style="fill:#a1a1a1; stroke:none;" d="M185 64L186 65L185 64z"/>
<path style="fill:#303030; stroke:none;" d="M196 64L197 65L196 64z"/>
<path style="fill:#606060; stroke:none;" d="M25 65L26 66L25 65z"/>
<path style="fill:#fcfcfc; stroke:none;" d="M33 65L32 68L35 66L33 65z"/>
<path style="fill:#030303; stroke:none;" d="M35 65L36 66L35 65z"/>
<path style="fill:#fcfcfc; stroke:none;" d="M38 65L39 66L38 65z"/>
<path style="fill:#303030; stroke:none;" d="M56 65L54 68L56 65z"/>
<path style="fill:#606060; stroke:none;" d="M57 65L58 66L57 65z"/>
<path style="fill:#a1a1a1; stroke:none;" d="M125.333 65.6667L125.667 66.3333L125.333 65.6667z"/>
<path style="fill:#fcfcfc; stroke:none;" d="M180 65L181 66L180 65z"/>
<path style="fill:#a1a1a1; stroke:none;" d="M186 65L186 66L191 69L186 65z"/>
<path style="fill:#606060; stroke:none;" d="M187 65L188 66L187 65M197 65L198 66L197 65z"/>
<path style="fill:#a1a1a1; stroke:none;" d="M32 66L33 67L32 66z"/>
<path style="fill:#030303; stroke:none;" d="M36 66L38 68L38 66L36 66z"/>
<path style="fill:#606060; stroke:none;" d="M52 66L52 69L53 69L52 66z"/>
<path style="fill:#a1a1a1; stroke:none;" d="M56 66L57 67L56 66z"/>
<path style="fill:#303030; stroke:none;" d="M178 66L179 67L178 66z"/>
<path style="fill:#606060; stroke:none;" d="M180 66L181 67L180 66z"/>
<path style="fill:#a1a1a1; stroke:none;" d="M181.333 66.6667L181.667 67.3333L181.333 66.6667z"/>
<path style="fill:#606060; stroke:none;" d="M183 66L184 67L183 66z"/>
<path style="fill:#a1a1a1; stroke:none;" d="M184 66L185 67L184 66z"/>
<path style="fill:#303030; stroke:none;" d="M189 66L190 67L189 66z"/>
<path style="fill:#a1a1a1; stroke:none;" d="M198 66L199 67L198 66z"/>
<path style="fill:#303030; stroke:none;" d="M24 67L25 68L24 67M31 67L32 68L31 67z"/>
<path style="fill:#606060; stroke:none;" d="M33 67L34 68L33 67z"/>
<path style="fill:#fcfcfc; stroke:none;" d="M35 67L37 69L35 67z"/>
<path style="fill:#606060; stroke:none;" d="M38 67L39 68L38 67z"/>
<path style="fill:#303030; stroke:none;" d="M46 67L47 68L46 67z"/>
<path style="fill:#606060; stroke:none;" d="M47 67L46 70L47 67z"/>
<path style="fill:#303030; stroke:none;" d="M48 67L50 69L48 67M57 67L58 68L57 67M91 67L92 68L91 67z"/>
<path style="fill:#606060; stroke:none;" d="M178 67L179 68L178 67z"/>
<path style="fill:#303030; stroke:none;" d="M182 67L183 68L182 67M184 67L185 68L184 67M190 67L191 68L190 67z"/>
<path style="fill:#a1a1a1; stroke:none;" d="M23 68L24 69L23 68z"/>
<path style="fill:#606060; stroke:none;" d="M31 68L32 69L31 68M35 68L36 69L35 68z"/>
<path style="fill:#a1a1a1; stroke:none;" d="M41 68L42 69L41 68z"/>
<path style="fill:#606060; stroke:none;" d="M42.6667 68.3333L43.3333 68.6667L42.6667 68.3333z"/>
<path style="fill:#a1a1a1; stroke:none;" d="M44 68L45 69L44 68M46 68L47 69L46 68M48 68L49 69L48 68M54 68L55 69L54 68z"/>
<path style="fill:#606060; stroke:none;" d="M55 68L56 69L55 68z"/>
<path style="fill:#a1a1a1; stroke:none;" d="M56 68L57 69L56 68M91 68L92 69L91 68z"/>
<path style="fill:#303030; stroke:none;" d="M124 68L125 69L124 68z"/>
<path style="fill:#a1a1a1; stroke:none;" d="M179 68L180 69L179 68z"/>
<path style="fill:#303030; stroke:none;" d="M189 68L190 69L189 68M199 68L200 69L199 68M23 69L24 70L23 69M30 69L28 72L30 69z"/>
<path style="fill:#606060; stroke:none;" d="M37 69L37 72L38 72L37 69M124 69L125 70L124 69z"/>
<path style="fill:#a1a1a1; stroke:none;" d="M180 69L183 72L180 69z"/>
<path style="fill:#fcfcfc; stroke:none;" d="M190 69L191 70L190 69z"/>
<path style="fill:#a1a1a1; stroke:none;" d="M200 69L201 70L200 69M22 70L23 71L22 70M48 70L48 71L51 71L48 70z"/>
<path style="fill:#606060; stroke:none;" d="M92.3333 70.6667L92.6667 71.3333L92.3333 70.6667z"/>
<path style="fill:#a1a1a1; stroke:none;" d="M124 70L125 71L124 70M178 70L179 71L178 70z"/>
<path style="fill:#030303; stroke:none;" d="M179 70C175.738 77.8872 179.837 83.5214 188 85L188 84L179 70z"/>
<path style="fill:#fcfcfc; stroke:none;" d="M180 70L188 84L188 83L180 70z"/>
<path style="fill:#a1a1a1; stroke:none;" d="M190 70L192 73L190 70z"/>
<path style="fill:#303030; stroke:none;" d="M22 71L23 72L22 71z"/>
<path style="fill:#606060; stroke:none;" d="M29 71L30 72L29 71z"/>
<path style="fill:#303030; stroke:none;" d="M180 71L181 72L180 71M191 71L192 72L191 71z"/>
<path style="fill:#606060; stroke:none;" d="M201 71L202 72L201 71z"/>
<path style="fill:#a1a1a1; stroke:none;" d="M21 72L22 73L21 72z"/>
<path style="fill:#606060; stroke:none;" d="M28 72L29 73L28 72z"/>
<path style="fill:#a1a1a1; stroke:none;" d="M37 72L37 75L38 75L37 72z"/>
<path style="fill:#606060; stroke:none;" d="M123 72L124 73L123 72M177 72L178 73L177 72M181 72L182 73L181 72z"/>
<path style="fill:#303030; stroke:none;" d="M183 72L184 73L183 72M190 72L191 73L190 72M21 73L22 74L21 73z"/>
<path style="fill:#a1a1a1; stroke:none;" d="M27 73L28 74L27 73z"/>
<path style="fill:#303030; stroke:none;" d="M28 73L29 74L28 73z"/>
<path style="fill:#a1a1a1; stroke:none;" d="M92 73L93 74L92 73z"/>
<path style="fill:#606060; stroke:none;" d="M93 73L94 74L93 73z"/>
<path style="fill:#a1a1a1; stroke:none;" d="M176 73L175 79L176 79L176 73z"/>
<path style="fill:#303030; stroke:none;" d="M177 73L178 74L177 73z"/>
<path style="fill:#a1a1a1; stroke:none;" d="M183 73L184 74L183 73z"/>
<path style="fill:#303030; stroke:none;" d="M191 73L192 74L191 73z"/>
<path style="fill:#a1a1a1; stroke:none;" d="M202 73L203 74L202 73M20 74L21 75L20 74z"/>
<path style="fill:#303030; stroke:none;" d="M26 74L27 75L26 74z"/>
<path style="fill:#606060; stroke:none;" d="M27 74L28 75L27 74z"/>
<path style="fill:#303030; stroke:none;" d="M94 74L95 75L94 74M121 74L122 75L121 74z"/>
<path style="fill:#a1a1a1; stroke:none;" d="M182 74L183 75L182 74z"/>
<path style="fill:#303030; stroke:none;" d="M202 74L203 75L202 74M20 75L21 76L20 75z"/>
<path style="fill:#a1a1a1; stroke:none;" d="M26 75L25 78L26 78L26 75M121 75L124 77L124 76L121 75z"/>
<path style="fill:#606060; stroke:none;" d="M182 75L183 76L182 75z"/>
<path style="fill:#303030; stroke:none;" d="M184 75L184 80L185 80L184 75z"/>
<path style="fill:#a1a1a1; stroke:none;" d="M203 75L204 76L203 75M19 76L20 77L19 76z"/>
<path style="fill:#606060; stroke:none;" d="M26 76L27 77L26 76z"/>
<path style="fill:#303030; stroke:none;" d="M182 76L182 80L183 80L182 76z"/>
<path style="fill:#606060; stroke:none;" d="M203 76L204 77L203 76z"/>
<path style="fill:#303030; stroke:none;" d="M19 77L20 78L19 77z"/>
<path style="fill:#606060; stroke:none;" d="M24 77L25 78L24 77z"/>
<path style="fill:#303030; stroke:none;" d="M28 77L29 78L28 77z"/>
<path style="fill:#fcfcfc; stroke:none;" d="M121 77L114 88L123 77L121 77z"/>
<path style="fill:#030303; stroke:none;" d="M123 77L115 90C125.455 92.9531 133.945 85.9578 143 82L143 81L123 77z"/>
<path style="fill:#303030; stroke:none;" d="M124 77L125 78L124 77z"/>
<path style="fill:#a1a1a1; stroke:none;" d="M125 77L126 78L125 77z"/>
<path style="fill:#303030; stroke:none;" d="M177 77L178 78L177 77z"/>
<path style="fill:#a1a1a1; stroke:none;" d="M18 78L19 79L18 78z"/>
<path style="fill:#fcfcfc; stroke:none;" d="M24 78L25 79L24 78z"/>
<path style="fill:#303030; stroke:none;" d="M36 78L36 82L37 82L36 78M94 78L95 79L94 78M120 78L121 79L120 78z"/>
<path style="fill:#a1a1a1; stroke:none;" d="M122 78L123 79L122 78z"/>
<path style="fill:#303030; stroke:none;" d="M126 78L127 79L126 78z"/>
<path style="fill:#a1a1a1; stroke:none;" d="M127 78L128 79L127 78z"/>
<path style="fill:#606060; stroke:none;" d="M176.667 78.3333L177.333 78.6667L176.667 78.3333z"/>
<path style="fill:#a1a1a1; stroke:none;" d="M204 78L205 79L204 78z"/>
<path style="fill:#303030; stroke:none;" d="M18 79L19 80L18 79z"/>
<path style="fill:#a1a1a1; stroke:none;" d="M23.6667 79.3333L24.3333 79.6667L23.6667 79.3333z"/>
<path style="fill:#606060; stroke:none;" d="M94 79L95 80L94 79z"/>
<path style="fill:#303030; stroke:none;" d="M119 79L120 80L119 79z"/>
<path style="fill:#606060; stroke:none;" d="M122 79L123 80L122 79z"/>
<path style="fill:#303030; stroke:none;" d="M129 79L130 80L129 79z"/>
<path style="fill:#606060; stroke:none;" d="M130 79L131 80L130 79z"/>
<path style="fill:#a1a1a1; stroke:none;" d="M131 79L132 80L131 79z"/>
<path style="fill:#303030; stroke:none;" d="M176 79L177 80L176 79z"/>
<path style="fill:#a1a1a1; stroke:none;" d="M177 79L178 80L177 79z"/>
<path style="fill:#606060; stroke:none;" d="M204 79L205 80L204 79z"/>
<path style="fill:#303030; stroke:none;" d="M22 80L24 82L22 80z"/>
<path style="fill:#fcfcfc; stroke:none;" d="M23 80L24 81L23 80z"/>
<path style="fill:#303030; stroke:none;" d="M118 80L119 81L118 80z"/>
<path style="fill:#a1a1a1; stroke:none;" d="M121 80L122 81L121 80z"/>
<path style="fill:#303030; stroke:none;" d="M141.667 80.3333L142.333 80.6667L141.667 80.3333z"/>
<path style="fill:#606060; stroke:none;" d="M143.333 80.6667L143.667 81.3333L143.333 80.6667z"/>
<path style="fill:#a1a1a1; stroke:none;" d="M169 80L169 81L172 81L169 80z"/>
<path style="fill:#030303; stroke:none;" d="M176 80L178 82L176 80z"/>
<path style="fill:#606060; stroke:none;" d="M177 80L177 81L178 83L179 83L177 80z"/>
<path style="fill:#a1a1a1; stroke:none;" d="M184 80L185 81L184 80z"/>
<path style="fill:#303030; stroke:none;" d="M204.333 80.6667L204.667 81.3333L204.333 80.6667z"/>
<path style="fill:#606060; stroke:none;" d="M17 81L18 82L17 81z"/>
<path style="fill:#fcfcfc; stroke:none;" d="M22 81L16 98L21 99L19 94L22 81z"/>
<path style="fill:#303030; stroke:none;" d="M95 81L96 82L95 81M167 81L168 82L167 81z"/>
<path style="fill:#030303; stroke:none;" d="M165 83L165 84L173 82L165 83z"/>
<path style="fill:#303030; stroke:none;" d="M173 81L174 82L173 81z"/>
<path style="fill:#a1a1a1; stroke:none;" d="M174 81L173 83L175 83L174 81M176 81L181 83L181 82L176 81M178 81L179 82L178 81M183 81L184 82L183 81z"/>
<path style="fill:#606060; stroke:none;" d="M185 81L186 82L185 81z"/>
<path style="fill:#a1a1a1; stroke:none;" d="M21 82L22 83L21 82z"/>
<path style="fill:#606060; stroke:none;" d="M36 82L37 83L36 82z"/>
<path style="fill:#a1a1a1; stroke:none;" d="M95 82L96 83L95 82z"/>
<path style="fill:#303030; stroke:none;" d="M120 82L121 83L120 82z"/>
<path style="fill:#a1a1a1; stroke:none;" d="M141 82L142 83L141 82M146 82L147 83L146 82z"/>
<path style="fill:#606060; stroke:none;" d="M147 82L148 83L147 82z"/>
<path style="fill:#303030; stroke:none;" d="M148 82L148 83L152 83L148 82z"/>
<path style="fill:#606060; stroke:none;" d="M152 82L153 83L152 82z"/>
<path style="fill:#a1a1a1; stroke:none;" d="M153.667 82.3333L154.333 82.6667L153.667 82.3333z"/>
<path style="fill:#606060; stroke:none;" d="M168 82L169 83L168 82z"/>
<path style="fill:#a1a1a1; stroke:none;" d="M169.333 82.6667L169.667 83.3333L169.333 82.6667z"/>
<path style="fill:#fcfcfc; stroke:none;" d="M170 82L170 83L173 83L170 82z"/>
<path style="fill:#606060; stroke:none;" d="M175.667 82.3333L176.333 82.6667L175.667 82.3333z"/>
<path style="fill:#a1a1a1; stroke:none;" d="M184 82L185 83L184 82M186 82L187 83L186 82M16 83L17 84L16 83z"/>
<path style="fill:#303030; stroke:none;" d="M20 83L21 84L20 83M22 83L23 84L22 83M36.3333 83.6667L36.6667 84.3333L36.3333 83.6667M96 83L97 84L96 83z"/>
<path style="fill:#a1a1a1; stroke:none;" d="M116 83L117 84L116 83z"/>
<path style="fill:#606060; stroke:none;" d="M119 83L120 84L119 83M139 83L140 84L139 83M143 83L144 84L143 83z"/>
<path style="fill:#030303; stroke:none;" d="M149 96C155.121 94.8911 158.525 91.6108 161 86C148.321 78.898 141.97 86.4816 131 91.686C126.851 93.6542 122.113 92.4077 118.001 94.5725C109.597 98.9965 109.556 111.536 114.742 118.867C129.216 139.325 153.464 112.914 149 96z"/>
<path style="fill:#606060; stroke:none;" d="M156 83L157 84L156 83z"/>
<path style="fill:#a1a1a1; stroke:none;" d="M157 83L158 84L157 83M164 83L163 87L164 87L164 83M166 83L167 84L166 83z"/>
<path style="fill:#fcfcfc; stroke:none;" d="M164 85L164 86L169 84L164 85z"/>
<path style="fill:#303030; stroke:none;" d="M170.333 83.6667L170.667 84.3333L170.333 83.6667z"/>
<path style="fill:#030303; stroke:none;" d="M171 83L171 84L177 84L171 83z"/>
<path style="fill:#303030; stroke:none;" d="M177.333 83.6667L177.667 84.3333L177.333 83.6667z"/>
<path style="fill:#fcfcfc; stroke:none;" d="M180 83L180 84L185 88L183 87L183 88L183 92L191 86L191 85L180 83z"/>
<path style="fill:#606060; stroke:none;" d="M182 83L183 84L182 83z"/>
<path style="fill:#303030; stroke:none;" d="M185 83L186 84L185 83z"/>
<path style="fill:#606060; stroke:none;" d="M188 83L189 84L188 83z"/>
<path style="fill:#a1a1a1; stroke:none;" d="M205 83L205 91L206 91L205 83z"/>
<path style="fill:#303030; stroke:none;" d="M16 84L17 85L16 84M97 84L98 85L97 84z"/>
<path style="fill:#606060; stroke:none;" d="M115 84L116 85L115 84M118 84L119 85L118 84z"/>
<path style="fill:#303030; stroke:none;" d="M137 84L138 85L137 84z"/>
<path style="fill:#606060; stroke:none;" d="M141 84L142 85L141 84M158 84L159 85L158 84M164 84L165 85L164 84z"/>
<path style="fill:#303030; stroke:none;" d="M167 84L168 85L167 84z"/>
<path style="fill:#030303; stroke:none;" d="M168.667 84.3333L169.333 84.6667L168.667 84.3333z"/>
<path style="fill:#a1a1a1; stroke:none;" d="M171 84L171 86L178 86L171 84z"/>
<path style="fill:#606060; stroke:none;" d="M176 84L177 85L176 84z"/>
<path style="fill:#030303; stroke:none;" d="M178 84L178 85L182 86L182 85L178 84z"/>
<path style="fill:#a1a1a1; stroke:none;" d="M181 84L182 85L181 84M183 84L184 85L183 84z"/>
<path style="fill:#303030; stroke:none;" d="M184 84L185 85L184 84z"/>
<path style="fill:#a1a1a1; stroke:none;" d="M188 84L188 86L190 84L188 84z"/>
<path style="fill:#606060; stroke:none;" d="M19 85L20 86L19 85z"/>
<path style="fill:#a1a1a1; stroke:none;" d="M21 85L21 88L22 88L21 85M93 85L94 86L93 85z"/>
<path style="fill:#606060; stroke:none;" d="M98 85L99 86L98 85z"/>
<path style="fill:#a1a1a1; stroke:none;" d="M117 85L118 86L117 85z"/>
<path style="fill:#606060; stroke:none;" d="M136 85L137 86L136 85z"/>
<path style="fill:#a1a1a1; stroke:none;" d="M139 85L140 86L139 85z"/>
<path style="fill:#606060; stroke:none;" d="M160 85L161 86L160 85z"/>
<path style="fill:#303030; stroke:none;" d="M165 85L167 88L165 85z"/>
<path style="fill:#030303; stroke:none;" d="M166 85L167 86L166 85z"/>
<path style="fill:#606060; stroke:none;" d="M167 85L169 87L167 85z"/>
<path style="fill:#fcfcfc; stroke:none;" d="M168 85L168 86L171 86L168 85z"/>
<path style="fill:#606060; stroke:none;" d="M175 85L176 86L175 85z"/>
<path style="fill:#fcfcfc; stroke:none;" d="M178.667 85.3333L179.333 85.6667L178.667 85.3333z"/>
<path style="fill:#606060; stroke:none;" d="M180 85L181 86L180 85z"/>
<path style="fill:#303030; stroke:none;" d="M182 85L183 86L182 85z"/>
<path style="fill:#606060; stroke:none;" d="M186.667 85.3333L187.333 85.6667L186.667 85.3333M15 86L16 87L15 86M92 86L90 89L92 86z"/>
<path style="fill:#030303; stroke:none;" d="M93 86L84 94C90.2636 94.7916 96.6471 96.6479 100 90L93 86z"/>
<path style="fill:#606060; stroke:none;" d="M94 86L95 87L94 86z"/>
<path style="fill:#a1a1a1; stroke:none;" d="M99 86L100 87L99 86M116 86L117 87L116 86M135 86L136 87L135 86z"/>
<path style="fill:#303030; stroke:none;" d="M138 86L139 87L138 86z"/>
<path style="fill:#030303; stroke:none;" d="M164 86L161 90L164 86z"/>
<path style="fill:#a1a1a1; stroke:none;" d="M166 86L167 87L166 86z"/>
<path style="fill:#fcfcfc; stroke:none;" d="M167 86L168 87L167 86z"/>
<path style="fill:#030303; stroke:none;" d="M154 98C159.473 98.7068 186.593 102.904 182.288 89.2284C178.508 77.2237 157.362 93.8703 154 98z"/>
<path style="fill:#a1a1a1; stroke:none;" d="M180 86L181 87L180 86z"/>
<path style="fill:#fcfcfc; stroke:none;" d="M181 86L182 87L181 86z"/>
<path style="fill:#606060; stroke:none;" d="M182 86L183 87L182 86z"/>
<path style="fill:#030303; stroke:none;" d="M183 86L184 87L183 86z"/>
<path style="fill:#a1a1a1; stroke:none;" d="M184 86L185 87L184 86M189 86L190 87L189 86z"/>
<path style="fill:#606060; stroke:none;" d="M190 86L191 87L190 86z"/>
<path style="fill:#303030; stroke:none;" d="M15 87L16 88L15 87z"/>
<path style="fill:#606060; stroke:none;" d="M18 87L19 88L18 87z"/>
<path style="fill:#303030; stroke:none;" d="M95 87L96 88L95 87z"/>
<path style="fill:#606060; stroke:none;" d="M101 87L102 88L101 87z"/>
<path style="fill:#a1a1a1; stroke:none;" d="M113 87L114 88L113 87M115 87L116 88L115 87z"/>
<path style="fill:#606060; stroke:none;" d="M133 87L134 88L133 87z"/>
<path style="fill:#a1a1a1; stroke:none;" d="M136 87L137 88L136 87M160 87L160 89L162 87L160 87z"/>
<path style="fill:#606060; stroke:none;" d="M164 87L163 90L164 90L164 87z"/>
<path style="fill:#fcfcfc; stroke:none;" d="M165 87L166 88L165 87z"/>
<path style="fill:#a1a1a1; stroke:none;" d="M182 87L183 88L182 87z"/>
<path style="fill:#606060; stroke:none;" d="M184 87L185 88L184 87z"/>
<path style="fill:#a1a1a1; stroke:none;" d="M187 87L188 88L187 87z"/>
<path style="fill:#606060; stroke:none;" d="M21 88L21 93L22 93L21 88z"/>
<path style="fill:#303030; stroke:none;" d="M96 88L97 89L96 88z"/>
<path style="fill:#a1a1a1; stroke:none;" d="M103 88L104 89L103 88z"/>
<path style="fill:#303030; stroke:none;" d="M104 88L105 89L104 88z"/>
<path style="fill:#a1a1a1; stroke:none;" d="M112 88L113 89L112 88M114.333 88.6667L114.667 89.3333L114.333 88.6667z"/>
<path style="fill:#606060; stroke:none;" d="M132 88L133 89L132 88z"/>
<path style="fill:#a1a1a1; stroke:none;" d="M135 88L136 89L135 88M164 88L165 89L164 88z"/>
<path style="fill:#303030; stroke:none;" d="M187 88L188 89L187 88z"/>
<path style="fill:#a1a1a1; stroke:none;" d="M14 89L15 90L14 89z"/>
<path style="fill:#606060; stroke:none;" d="M17 89L18 90L17 89z"/>
<path style="fill:#a1a1a1; stroke:none;" d="M88 89L89 90L88 89M98 89L99 90L98 89M106 89L107 90L106 89z"/>
<path style="fill:#606060; stroke:none;" d="M107 89L107 90L110 90L107 89z"/>
<path style="fill:#a1a1a1; stroke:none;" d="M110 89L111 90L110 89z"/>
<path style="fill:#303030; stroke:none;" d="M124 89L124 90L129 90L124 89z"/>
<path style="fill:#606060; stroke:none;" d="M129 89L130 90L129 89z"/>
<path style="fill:#a1a1a1; stroke:none;" d="M130 89L131 90L130 89z"/>
<path style="fill:#606060; stroke:none;" d="M134 89L135 90L134 89M159.333 89.6667L159.667 90.3333L159.333 89.6667z"/>
<path style="fill:#303030; stroke:none;" d="M160 89L163 91L163 90L160 89z"/>
<path style="fill:#a1a1a1; stroke:none;" d="M162 89L163 90L162 89M183.333 89.6667L183.667 90.3333L183.333 89.6667M186.333 89.6667L186.667 90.3333L186.333 89.6667z"/>
<path style="fill:#606060; stroke:none;" d="M14 90L15 91L14 90z"/>
<path style="fill:#a1a1a1; stroke:none;" d="M45 90L45 91L48 91L45 90M67 90L67 91L70 91L67 90z"/>
<path style="fill:#606060; stroke:none;" d="M70.6667 90.3333L71.3333 90.6667L70.6667 90.3333z"/>
<path style="fill:#a1a1a1; stroke:none;" d="M72 90L72 91L75 91L72 90z"/>
<path style="fill:#303030; stroke:none;" d="M87 90L88 91L87 90z"/>
<path style="fill:#a1a1a1; stroke:none;" d="M100.333 90.6667L100.667 91.3333L100.333 90.6667z"/>
<path style="fill:#606060; stroke:none;" d="M116 90L117 91L116 90z"/>
<path style="fill:#303030; stroke:none;" d="M117 90L118 91L117 90z"/>
<path style="fill:#606060; stroke:none;" d="M122 90L123 91L122 90M133 90L134 91L133 90z"/>
<path style="fill:#a1a1a1; stroke:none;" d="M161 90L162 91L161 90z"/>
<path style="fill:#303030; stroke:none;" d="M14 91L15 92L14 91z"/>
<path style="fill:#606060; stroke:none;" d="M43 91L44 92L43 91z"/>
<path style="fill:#030303; stroke:none;" d="M37 99L43 106C43.4775 116.464 57.8459 115.319 60.5941 106C62.634 99.0829 52.2597 90.8149 46.0008 91.3333C41.558 91.7014 39.034 95.513 37 99z"/>
<path style="fill:#303030; stroke:none;" d="M49 91L50 92L49 91z"/>
<path style="fill:#a1a1a1; stroke:none;" d="M50 91L51 92L50 91M62 91L63 92L62 91z"/>
<path style="fill:#606060; stroke:none;" d="M63 91L64 92L63 91z"/>
<path style="fill:#303030; stroke:none;" d="M64 91L65 92L64 91z"/>
<path style="fill:#030303; stroke:none;" d="M65.0046 91.4684C56.4691 93.1549 62.6653 108.133 66.1397 113.895C70.7912 121.609 91.3281 128.647 100 126.308C110.412 123.5 114.045 107.875 105.775 100.789C100.677 96.4199 95.0377 97.692 89 96.5316C80.2502 94.85 74.5354 89.5852 65.0046 91.4684z"/>
<path style="fill:#303030; stroke:none;" d="M76 91L77 92L76 91z"/>
<path style="fill:#a1a1a1; stroke:none;" d="M77 91L78 92L77 91z"/>
<path style="fill:#606060; stroke:none;" d="M85 91L86 92L85 91z"/>
<path style="fill:#a1a1a1; stroke:none;" d="M102.667 91.3333L103.333 91.6667L102.667 91.3333M108 91L109 92L108 91z"/>
<path style="fill:#303030; stroke:none;" d="M109 91L110 92L109 91z"/>
<path style="fill:#606060; stroke:none;" d="M110 91L111 92L110 91z"/>
<path style="fill:#a1a1a1; stroke:none;" d="M118 91L119 92L118 91M121 91L122 92L121 91M131 91L132 92L131 91z"/>
<path style="fill:#303030; stroke:none;" d="M132 91L133 92L132 91M158 91L157 93L158 91z"/>
<path style="fill:#fcfcfc; stroke:none;" d="M159 91L149 96L151 102L152 102L151 98L159 91z"/>
<path style="fill:#a1a1a1; stroke:none;" d="M160 91L161 92L160 91z"/>
<path style="fill:#606060; stroke:none;" d="M186 91L187 92L186 91z"/>
<path style="fill:#303030; stroke:none;" d="M16 92L17 93L16 92M51 92L52 93L51 92z"/>
<path style="fill:#a1a1a1; stroke:none;" d="M60 92L61 93L60 92z"/>
<path style="fill:#303030; stroke:none;" d="M79 92L80 93L79 92z"/>
<path style="fill:#606060; stroke:none;" d="M83 92L84 93L83 92z"/>
<path style="fill:#fcfcfc; stroke:none;" d="M99 92L97 96L101 92L99 92z"/>
<path style="fill:#303030; stroke:none;" d="M101 92L102 93L101 92z"/>
<path style="fill:#030303; stroke:none;" d="M99 96C105.317 96.5508 110.297 99.642 115 94C109.669 91.4346 102.586 90.4816 99 96z"/>
<path style="fill:#303030; stroke:none;" d="M112 92L113 93L112 92z"/>
<path style="fill:#a1a1a1; stroke:none;" d="M113 92L114 93L113 92M123 92L123 93L128 93L123 92z"/>
<path style="fill:#606060; stroke:none;" d="M128 92L129 93L128 92z"/>
<path style="fill:#303030; stroke:none;" d="M129 92L130 93L129 92z"/>
<path style="fill:#a1a1a1; stroke:none;" d="M159 92L160 93L159 92z"/>
<path style="fill:#303030; stroke:none;" d="M180 92L181 93L180 92z"/>
<path style="fill:#606060; stroke:none;" d="M182 92L183 93L182 92z"/>
<path style="fill:#a1a1a1; stroke:none;" d="M183 92L184 93L183 92z"/>
<path style="fill:#303030; stroke:none;" d="M185 92L186 93L185 92z"/>
<path style="fill:#606060; stroke:none;" d="M197 92L197 93L205 93L205 92L197 92z"/>
<path style="fill:#a1a1a1; stroke:none;" d="M198 92L198 93L202 93L198 92z"/>
<path style="fill:#303030; stroke:none;" d="M203 92L204 93L203 92z"/>
<path style="fill:#a1a1a1; stroke:none;" d="M13.3333 93.6667L13.6667 94.3333L13.3333 93.6667M16.3333 93.6667L16.6667 94.3333L16.3333 93.6667M20 93L21 94L20 93z"/>
<path style="fill:#303030; stroke:none;" d="M21 93L22 94L21 93z"/>
<path style="fill:#a1a1a1; stroke:none;" d="M53 93L54 94L53 93M81 93L82 94L81 93M83.3333 93.6667L83.6667 94.3333L83.3333 93.6667z"/>
<path style="fill:#606060; stroke:none;" d="M114 93L115 94L114 93z"/>
<path style="fill:#a1a1a1; stroke:none;" d="M119 93L120 94L119 93z"/>
<path style="fill:#606060; stroke:none;" d="M156 93L157 94L156 93M158 93L159 94L158 93z"/>
<path style="fill:#fcfcfc; stroke:none;" d="M182 93C176.917 99.4765 169.835 100.828 162 100L162 101L167 103L152 108L152 103L151 103L146 113L152 113L151 109L165 106L163 109L174 112L174 111L165 108C169.043 101.76 178.973 97.9227 186 96L182 93z"/>
<path style="fill:#303030; stroke:none;" d="M184 93L185 94L184 93M194 93L195 94L194 93z"/>
<path style="fill:#a1a1a1; stroke:none;" d="M195.333 93.6667L195.667 94.3333L195.333 93.6667z"/>
<path style="fill:#fcfcfc; stroke:none;" d="M196 93L197 94L196 93z"/>
<path style="fill:#a1a1a1; stroke:none;" d="M197 93L198 94L197 93M19 94L20 95L19 94z"/>
<path style="fill:#606060; stroke:none;" d="M54 94L55 95L54 94z"/>
<path style="fill:#303030; stroke:none;" d="M58.3333 94.6667L58.6667 95.3333L58.3333 94.6667M60 94L61 95L60 94M82 94L83 95L82 94z"/>
<path style="fill:#fcfcfc; stroke:none;" d="M84 94L84 95L89 96L89 95L84 94z"/>
<path style="fill:#606060; stroke:none;" d="M86 94L87 95L86 94z"/>
<path style="fill:#303030; stroke:none;" d="M87 94L88 95L87 94z"/>
<path style="fill:#606060; stroke:none;" d="M97 94L98 95L97 94z"/>
<path style="fill:#303030; stroke:none;" d="M99 94L100 95L99 94z"/>
<path style="fill:#a1a1a1; stroke:none;" d="M115 94L116 95L115 94M117 94L118 95L117 94z"/>
<path style="fill:#303030; stroke:none;" d="M154 94L155 95L154 94M157 94L158 95L157 94z"/>
<path style="fill:#606060; stroke:none;" d="M181 94L182 95L181 94z"/>
<path style="fill:#a1a1a1; stroke:none;" d="M185 94L188 96L185 94z"/>
<path style="fill:#fcfcfc; stroke:none;" d="M188 94L188 95L191 95L188 94z"/>
<path style="fill:#a1a1a1; stroke:none;" d="M190 96L193 94L190 96z"/>
<path style="fill:#fcfcfc; stroke:none;" d="M193.667 94.3333L194.333 94.6667L193.667 94.3333z"/>
<path style="fill:#303030; stroke:none;" d="M196 94L197 95L196 94z"/>
<path style="fill:#030303; stroke:none;" d="M165 108C180.287 112.424 195.26 109.287 204 94C190.973 94.1093 173.772 97.4437 165 108z"/>
<path style="fill:#606060; stroke:none;" d="M13 95L14 96L13 95z"/>
<path style="fill:#303030; stroke:none;" d="M21 95L22 96L21 95M55 95L56 96L55 95M84 95L85 96L84 95z"/>
<path style="fill:#606060; stroke:none;" d="M85 95L86 96L85 95z"/>
<path style="fill:#a1a1a1; stroke:none;" d="M89 95L89 96L96 96L96 95L89 95z"/>
<path style="fill:#fcfcfc; stroke:none;" d="M90 95L91 96L90 95z"/>
<path style="fill:#606060; stroke:none;" d="M96.3333 95.6667L96.6667 96.3333L96.3333 95.6667z"/>
<path style="fill:#a1a1a1; stroke:none;" d="M98 95L100 97L98 95z"/>
<path style="fill:#fcfcfc; stroke:none;" d="M100 96L100 97L110 104L116 96L100 96z"/>
<path style="fill:#303030; stroke:none;" d="M116 95L117 96L116 95M152 95L153 96L152 95z"/>
<path style="fill:#a1a1a1; stroke:none;" d="M153 95L154 96L153 95z"/>
<path style="fill:#606060; stroke:none;" d="M180 95L181 96L180 95M188.667 95.3333L189.333 95.6667L188.667 95.3333M193 95L194 96L193 95z"/>
<path style="fill:#a1a1a1; stroke:none;" d="M203 95L204 96L203 95z"/>
<path style="fill:#303030; stroke:none;" d="M13.3333 96.6667L13.6667 97.3333L13.3333 96.6667z"/>
<path style="fill:#a1a1a1; stroke:none;" d="M21 96L21 101L22 101L21 96z"/>
<path style="fill:#303030; stroke:none;" d="M36 96L37 97L36 96M38 96L39 97L38 96z"/>
<path style="fill:#a1a1a1; stroke:none;" d="M58 96L59 97L58 96z"/>
<path style="fill:#303030; stroke:none;" d="M88 96L89 97L88 96z"/>
<path style="fill:#606060; stroke:none;" d="M89 96L90 97L89 96M94 96L95 97L94 96z"/>
<path style="fill:#303030; stroke:none;" d="M95 96L96 97L95 96M97 96L98 97L97 96z"/>
<path style="fill:#606060; stroke:none;" d="M98 96L99 97L98 96z"/>
<path style="fill:#a1a1a1; stroke:none;" d="M102 96L103 97L102 96z"/>
<path style="fill:#606060; stroke:none;" d="M103 96L104 97L103 96z"/>
<path style="fill:#a1a1a1; stroke:none;" d="M114 96L115 97L114 96M154 96L155 97L154 96M179 96L180 97L179 96z"/>
<path style="fill:#606060; stroke:none;" d="M183 96L184 97L183 96z"/>
<path style="fill:#303030; stroke:none;" d="M202 96L203 97L202 96M15 97L16 98L15 97z"/>
<path style="fill:#030303; stroke:none;" d="M17 97L23 108L17 97z"/>
<path style="fill:#303030; stroke:none;" d="M18 97L19 98L18 97z"/>
<path style="fill:#a1a1a1; stroke:none;" d="M36 97L37 98L36 97z"/>
<path style="fill:#606060; stroke:none;" d="M37 97L38 98L37 97z"/>
<path style="fill:#fcfcfc; stroke:none;" d="M58 97L61 108L64 108L58 97z"/>
<path style="fill:#606060; stroke:none;" d="M59 97L60 98L59 97z"/>
<path style="fill:#303030; stroke:none;" d="M100 97L101 98L100 97z"/>
<path style="fill:#a1a1a1; stroke:none;" d="M101 97L102 98L101 97M105 97L106 98L105 97z"/>
<path style="fill:#606060; stroke:none;" d="M106 97L107 98L106 97M113 97L114 98L113 97z"/>
<path style="fill:#a1a1a1; stroke:none;" d="M152 97L151 99L152 97z"/>
<path style="fill:#303030; stroke:none;" d="M153 97L154 98L153 97M177 97L178 98L177 97z"/>
<path style="fill:#606060; stroke:none;" d="M181 97L182 98L181 97M15 98L16 99L15 98z"/>
<path style="fill:#a1a1a1; stroke:none;" d="M16 98L15 103L16 103L16 98z"/>
<path style="fill:#303030; stroke:none;" d="M35 98L36 99L35 98z"/>
<path style="fill:#606060; stroke:none;" d="M36 98L35 100L36 98z"/>
<path style="fill:#303030; stroke:none;" d="M38 98L40 100L38 98z"/>
<path style="fill:#606060; stroke:none;" d="M60 98L61 99L60 98z"/>
<path style="fill:#303030; stroke:none;" d="M102 98L103 99L102 98z"/>
<path style="fill:#a1a1a1; stroke:none;" d="M103 98L104 99L103 98M107 98L108 99L107 98z"/>
<path style="fill:#303030; stroke:none;" d="M108.667 98.3333L109.333 98.6667L108.667 98.3333z"/>
<path style="fill:#606060; stroke:none;" d="M110 98L111 99L110 98M112 98L113 99L112 98M149 98L150 99L149 98M152 98L152 100L156 100L156 98L152 98z"/>
<path style="fill:#303030; stroke:none;" d="M156.667 98.3333L157.333 98.6667L156.667 98.3333z"/>
<path style="fill:#606060; stroke:none;" d="M175 98L176 99L175 98z"/>
<path style="fill:#a1a1a1; stroke:none;" d="M178 98L179 99L178 98z"/>
<path style="fill:#303030; stroke:none;" d="M179 98L180 99L179 98z"/>
<path style="fill:#a1a1a1; stroke:none;" d="M201 98L202 99L201 98M36.6667 99.3333L37.3333 99.6667L36.6667 99.3333z"/>
<path style="fill:#fcfcfc; stroke:none;" d="M38 99L35 100L35 101C37.2611 105.518 32.0856 111.458 27 110.623C21.9264 109.79 18.8617 104.233 17 100L16 100L19 114L20 114L19 111L43 114L39 118L39 119L52 116L52 115C44.172 110.504 41.7027 106.97 38 99z"/>
<path style="fill:#303030; stroke:none;" d="M59 99L60 100L59 99z"/>
<path style="fill:#606060; stroke:none;" d="M61 99L62 100L61 99M104 99L105 100L104 99M111 99L112 100L111 99z"/>
<path style="fill:#a1a1a1; stroke:none;" d="M150 99L151 100L150 99M156 99L156 100L159 100L156 99z"/>
<path style="fill:#fcfcfc; stroke:none;" d="M159 99L160 100L159 99z"/>
<path style="fill:#a1a1a1; stroke:none;" d="M160 99L162 101L162 99L160 99z"/>
<path style="fill:#303030; stroke:none;" d="M162 99L163 100L162 99M171 99L172 100L171 99z"/>
<path style="fill:#606060; stroke:none;" d="M172 99L173 100L172 99z"/>
<path style="fill:#a1a1a1; stroke:none;" d="M173 99L174 100L173 99M176 99L177 100L176 99z"/>
<path style="fill:#606060; stroke:none;" d="M200 99L201 100L200 99z"/>
<path style="fill:#a1a1a1; stroke:none;" d="M12 100L12 103L13 103L12 100z"/>
<path style="fill:#303030; stroke:none;" d="M19.3333 100.667L19.6667 101.333L19.3333 100.667z"/>
<path style="fill:#fcfcfc; stroke:none;" d="M20 100L26 110L20 100z"/>
<path style="fill:#606060; stroke:none;" d="M39 100L39 103L40 103L39 100z"/>
<path style="fill:#303030; stroke:none;" d="M62 100L63 101L62 100M105 100L106 101L105 100z"/>
<path style="fill:#a1a1a1; stroke:none;" d="M110 100L111 101L110 100z"/>
<path style="fill:#303030; stroke:none;" d="M150 100L151 101L150 100z"/>
<path style="fill:#030303; stroke:none;" d="M152 100L152 108L166 103L152 100z"/>
<path style="fill:#303030; stroke:none;" d="M159 100L160 101L159 100z"/>
<path style="fill:#606060; stroke:none;" d="M160 100L161 101L160 100z"/>
<path style="fill:#a1a1a1; stroke:none;" d="M165 100L165 101L169 101L165 100z"/>
<path style="fill:#303030; stroke:none;" d="M175 100L176 101L175 100M199 100L200 101L199 100M17 101L18 102L17 101z"/>
<path style="fill:#a1a1a1; stroke:none;" d="M36 101L37 102L36 101M60 101L61 102L60 101M62 101L63 102L62 101z"/>
<path style="fill:#606060; stroke:none;" d="M110 101L111 102L110 101z"/>
<path style="fill:#303030; stroke:none;" d="M152 101L153 102L152 101M163 101L164 102L163 101z"/>
<path style="fill:#a1a1a1; stroke:none;" d="M164 101L165 102L164 101M173 101L174 102L173 101z"/>
<path style="fill:#606060; stroke:none;" d="M18.3333 102.667L18.6667 103.333L18.3333 102.667z"/>
<path style="fill:#303030; stroke:none;" d="M22 102L23 103L22 102z"/>
<path style="fill:#606060; stroke:none;" d="M36 102L37 103L36 102z"/>
<path style="fill:#303030; stroke:none;" d="M60 102L61 103L60 102M63 102L64 103L63 102M110.333 102.667L110.667 103.333L110.333 102.667z"/>
<path style="fill:#a1a1a1; stroke:none;" d="M151 102L152 106L153 106L151 102z"/>
<path style="fill:#606060; stroke:none;" d="M152 102L153 103L152 102M166 102L167 103L166 102z"/>
<path style="fill:#303030; stroke:none;" d="M172 102L173 103L172 102z"/>
<path style="fill:#606060; stroke:none;" d="M195 102L196 103L195 102z"/>
<path style="fill:#a1a1a1; stroke:none;" d="M196 102L196 104L198 102L196 102z"/>
<path style="fill:#303030; stroke:none;" d="M13 103L14 104L13 103z"/>
<path style="fill:#606060; stroke:none;" d="M15 103L16 104L15 103z"/>
<path style="fill:#a1a1a1; stroke:none;" d="M22 103L23 104L22 103M36 103L37 104L36 103z"/>
<path style="fill:#303030; stroke:none;" d="M39 103L40 104L39 103z"/>
<path style="fill:#a1a1a1; stroke:none;" d="M63.3333 103.667L63.6667 104.333L63.3333 103.667z"/>
<path style="fill:#303030; stroke:none;" d="M108 103L109 104L108 103z"/>
<path style="fill:#a1a1a1; stroke:none;" d="M165 103L166 104L165 103M168 103L169 104L168 103z"/>
<path style="fill:#606060; stroke:none;" d="M169 103L170 104L169 103z"/>
<path style="fill:#303030; stroke:none;" d="M170 103L171 104L170 103M193 103L194 104L193 103z"/>
<path style="fill:#fcfcfc; stroke:none;" d="M194 103L193 105L194 103z"/>
<path style="fill:#303030; stroke:none;" d="M195 103L194 106L195 103z"/>
<path style="fill:#a1a1a1; stroke:none;" d="M13 104L12 106L13 104z"/>
<path style="fill:#303030; stroke:none;" d="M15 104L16 105L15 104z"/>
<path style="fill:#a1a1a1; stroke:none;" d="M21 104L22 105L21 104M39 104L40 105L39 104M61 104L62 105L61 104M109 104L111 106L109 104z"/>
<path style="fill:#606060; stroke:none;" d="M110 104L111 105L110 104z"/>
<path style="fill:#303030; stroke:none;" d="M163 104L164 105L163 104z"/>
<path style="fill:#a1a1a1; stroke:none;" d="M166 104L167 105L166 104z"/>
<path style="fill:#303030; stroke:none;" d="M167 104L168 105L167 104z"/>
<path style="fill:#a1a1a1; stroke:none;" d="M192 104L189 109L192 104z"/>
<path style="fill:#030303; stroke:none;" d="M194 104L195 105L194 104z"/>
<path style="fill:#606060; stroke:none;" d="M11 105L12 106L11 105z"/>
<path style="fill:#fcfcfc; stroke:none;" d="M13 105L15 107L13 105z"/>
<path style="fill:#303030; stroke:none;" d="M14 105L15 106L14 105z"/>
<path style="fill:#a1a1a1; stroke:none;" d="M19 105L20 106L19 105z"/>
<path style="fill:#606060; stroke:none;" d="M21 105L22 106L21 105M23 105L24 106L23 105M35 105L36 106L35 105M109 105L110 106L109 105z"/>
<path style="fill:#303030; stroke:none;" d="M150 105L151 106L150 105z"/>
<path style="fill:#606060; stroke:none;" d="M161 105L162 106L161 105z"/>
<path style="fill:#303030; stroke:none;" d="M166.333 105.667L166.667 106.333L166.333 105.667z"/>
<path style="fill:#030303; stroke:none;" d="M193 105C184.122 113.417 175.478 114.737 164 116C171.317 120.383 193.232 115.311 193 105M11 106C11.8259 111.349 14.9621 114.286 20 116L18 109L11 106z"/>
<path style="fill:#606060; stroke:none;" d="M13 106L14 107L13 106M16 106L17 107L16 106z"/>
<path style="fill:#a1a1a1; stroke:none;" d="M20 106L21 107L20 106z"/>
<path style="fill:#606060; stroke:none;" d="M41 106L42 107L41 106z"/>
<path style="fill:#303030; stroke:none;" d="M42 106L43 107L42 106z"/>
<path style="fill:#606060; stroke:none;" d="M61 106L62 107L61 106z"/>
<path style="fill:#303030; stroke:none;" d="M109 106L110 107L109 106z"/>
<path style="fill:#a1a1a1; stroke:none;" d="M150 106L151 107L150 106z"/>
<path style="fill:#606060; stroke:none;" d="M152 106L153 107L152 106M158 106L159 107L158 106z"/>
<path style="fill:#a1a1a1; stroke:none;" d="M159 106L160 107L159 106M162 106L162 107L165 107L165 106L162 106z"/>
<path style="fill:#303030; stroke:none;" d="M163 106L164 107L163 106z"/>
<path style="fill:#fcfcfc; stroke:none;" d="M190 106L191 107L190 106z"/>
<path style="fill:#a1a1a1; stroke:none;" d="M10.3333 107.667L10.6667 108.333L10.3333 107.667z"/>
<path style="fill:#303030; stroke:none;" d="M14 107L15 108L14 107z"/>
<path style="fill:#a1a1a1; stroke:none;" d="M15 107L16 108L15 107M21 107L22 108L21 107M24 107L25 108L24 107z"/>
<path style="fill:#606060; stroke:none;" d="M34 107L35 108L34 107z"/>
<path style="fill:#a1a1a1; stroke:none;" d="M42 107L43 108L42 107M60 107L59 109L60 107M62 107L64 109L62 107z"/>
<path style="fill:#303030; stroke:none;" d="M111 107L112 108L111 107z"/>
<path style="fill:#606060; stroke:none;" d="M154 107L155 108L154 107z"/>
<path style="fill:#a1a1a1; stroke:none;" d="M155 107L156 108L155 107M160 107L161 108L160 107z"/>
<path style="fill:#030303; stroke:none;" d="M158 108L158 109L174 114L174 113L163 107L158 108z"/>
<path style="fill:#606060; stroke:none;" d="M188 107L189 108L188 107z"/>
<path style="fill:#fcfcfc; stroke:none;" d="M189 107L190 108L189 107z"/>
<path style="fill:#606060; stroke:none;" d="M15 108L16 109L15 108z"/>
<path style="fill:#303030; stroke:none;" d="M16 108L17 109L16 108z"/>
<path style="fill:#606060; stroke:none;" d="M17 108L18 109L17 108M22 108L25 111L22 108z"/>
<path style="fill:#303030; stroke:none;" d="M23 108L24 109L23 108z"/>
<path style="fill:#a1a1a1; stroke:none;" d="M25 108L26 109L25 108z"/>
<path style="fill:#606060; stroke:none;" d="M60 108L61 109L60 108z"/>
<path style="fill:#030303; stroke:none;" d="M60 109L63 111L62 108L60 109z"/>
<path style="fill:#a1a1a1; stroke:none;" d="M111 108L112 109L111 108M149 108L150 109L149 108M156 108L157 109L156 108z"/>
<path style="fill:#303030; stroke:none;" d="M157 108L158 109L157 108z"/>
<path style="fill:#a1a1a1; stroke:none;" d="M166 108L167 109L166 108M187 108L188 109L187 108z"/>
<path style="fill:#fcfcfc; stroke:none;" d="M188 108L182 111L182 112L189 109L188 108z"/>
<path style="fill:#303030; stroke:none;" d="M24 109L25 110L24 109z"/>
<path style="fill:#a1a1a1; stroke:none;" d="M26 109L28 111L26 109z"/>
<path style="fill:#606060; stroke:none;" d="M42 109L43 110L42 109z"/>
<path style="fill:#fcfcfc; stroke:none;" d="M53 115L53 116L62 115L63 111C57.9212 109.215 56.5436 111.666 53 115z"/>
<path style="fill:#606060; stroke:none;" d="M63 109L64 114L65 114L63 109z"/>
<path style="fill:#303030; stroke:none;" d="M64.3333 109.667L64.6667 110.333L64.3333 109.667z"/>
<path style="fill:#a1a1a1; stroke:none;" d="M148 109L149 110L148 109M151 109L152 110L151 109z"/>
<path style="fill:#030303; stroke:none;" d="M152 109L152 110L157 110L152 109z"/>
<path style="fill:#606060; stroke:none;" d="M157 109L159 111L157 109z"/>
<path style="fill:#a1a1a1; stroke:none;" d="M158.667 109.333L159.333 109.667L158.667 109.333z"/>
<path style="fill:#606060; stroke:none;" d="M160 109L163 112L160 109z"/>
<path style="fill:#303030; stroke:none;" d="M161 109L162 110L161 109z"/>
<path style="fill:#606060; stroke:none;" d="M164 109L165 110L164 109z"/>
<path style="fill:#a1a1a1; stroke:none;" d="M165 109L166 110L165 109M169 109L170 110L169 109z"/>
<path style="fill:#303030; stroke:none;" d="M170 109L171 110L170 109z"/>
<path style="fill:#606060; stroke:none;" d="M185 109L186 110L185 109z"/>
<path style="fill:#303030; stroke:none;" d="M188 109L189 110L188 109M190 109L191 110L190 109z"/>
<path style="fill:#606060; stroke:none;" d="M11 110L12 111L11 110z"/>
<path style="fill:#030303; stroke:none;" d="M25 110L26 111L25 110z"/>
<path style="fill:#606060; stroke:none;" d="M26 110L27 111L26 110M28 110L29 111L28 110M31 110L32 111L31 110M43 110L44 111L43 110z"/>
<path style="fill:#303030; stroke:none;" d="M61 110L62 111L61 110M112.333 110.667L112.667 111.333L112.333 110.667z"/>
<path style="fill:#606060; stroke:none;" d="M147 110L148 111L147 110M151 110L151 111L155 110L151 110z"/>
<path style="fill:#303030; stroke:none;" d="M152.667 110.333L153.333 110.667L152.667 110.333z"/>
<path style="fill:#a1a1a1; stroke:none;" d="M155 110L156 111L155 110z"/>
<path style="fill:#fcfcfc; stroke:none;" d="M156 110L157 111L156 110z"/>
<path style="fill:#a1a1a1; stroke:none;" d="M157 110L158 111L157 110z"/>
<path style="fill:#303030; stroke:none;" d="M159 110L160 111L159 110z"/>
<path style="fill:#a1a1a1; stroke:none;" d="M162 110L163 111L162 110M167 110L168 111L167 110z"/>
<path style="fill:#606060; stroke:none;" d="M172 110L173 111L172 110M183 110L184 111L183 110z"/>
<path style="fill:#a1a1a1; stroke:none;" d="M186 110L187 111L186 110z"/>
<path style="fill:#303030; stroke:none;" d="M189 110L190 111L189 110M12 111L13 112L12 111z"/>
<path style="fill:#606060; stroke:none;" d="M17.3333 111.667L17.6667 112.333L17.3333 111.667z"/>
<path style="fill:#a1a1a1; stroke:none;" d="M19 111L20 112L19 111M45 111L46 112L45 111z"/>
<path style="fill:#606060; stroke:none;" d="M46 111L47 112L46 111z"/>
<path style="fill:#303030; stroke:none;" d="M63 111L64 112L63 111z"/>
<path style="fill:#606060; stroke:none;" d="M146 111L147 112L146 111z"/>
<path style="fill:#303030; stroke:none;" d="M155 111L156 112L155 111z"/>
<path style="fill:#030303; stroke:none;" d="M150 114C147.171 111.88 144.958 116.362 144.409 119.004C143.579 122.996 145.364 126.983 145.09 131C144.745 136.044 142.672 139.725 143 145L143 154C151.615 147.049 158.786 136.902 160.996 126C163.118 115.537 162.392 107.238 150 114z"/>
<path style="fill:#fcfcfc; stroke:none;" d="M163 111L163 116L181 113L181 112L175 112L176 114L163 111z"/>
<path style="fill:#a1a1a1; stroke:none;" d="M165 111L166 112L165 111z"/>
<path style="fill:#303030; stroke:none;" d="M170 111L171 112L170 111z"/>
<path style="fill:#a1a1a1; stroke:none;" d="M171 111L172 112L171 111M174.333 111.667L174.667 112.333L174.333 111.667z"/>
<path style="fill:#606060; stroke:none;" d="M175 111L176 112L175 111z"/>
<path style="fill:#a1a1a1; stroke:none;" d="M181.333 111.667L181.667 112.333L181.333 111.667M184 111L185 112L184 111z"/>
<path style="fill:#606060; stroke:none;" d="M188 111L189 112L188 111z"/>
<path style="fill:#303030; stroke:none;" d="M13 112L14 113L13 112M19 112L20 113L19 112z"/>
<path style="fill:#030303; stroke:none;" d="M20 112L20 113C26.8092 117.627 36.2287 123.071 42 114L20 112z"/>
<path style="fill:#303030; stroke:none;" d="M26.6667 112.333L27.3333 112.667L26.6667 112.333z"/>
<path style="fill:#a1a1a1; stroke:none;" d="M28 112L29 113L28 112z"/>
<path style="fill:#303030; stroke:none;" d="M48 112L49 113L48 112z"/>
<path style="fill:#606060; stroke:none;" d="M55 112L56 113L55 112z"/>
<path style="fill:#a1a1a1; stroke:none;" d="M62 112L62 115L63 115L62 112z"/>
<path style="fill:#030303; stroke:none;" d="M63 112L64 116L28 121L28 122C35.2906 125.051 42.7244 131.324 51 130.891C60.5887 130.389 69.2638 121.169 63 112z"/>
<path style="fill:#606060; stroke:none;" d="M112.333 112.667L112.667 113.333L112.333 112.667M145 112L146 113L145 112z"/>
<path style="fill:#a1a1a1; stroke:none;" d="M147 112L148 113L147 112z"/>
<path style="fill:#303030; stroke:none;" d="M148 112L149 113L148 112z"/>
<path style="fill:#606060; stroke:none;" d="M150 112L152 114L150 112z"/>
<path style="fill:#a1a1a1; stroke:none;" d="M163 112L164 113L163 112M167 112L168 113L167 112z"/>
<path style="fill:#303030; stroke:none;" d="M168 112L169 113L168 112z"/>
<path style="fill:#606060; stroke:none;" d="M173 112L174 113L173 112M182 112L183 113L182 112z"/>
<path style="fill:#a1a1a1; stroke:none;" d="M187 112L188 113L187 112z"/>
<path style="fill:#303030; stroke:none;" d="M14 113L15 114L14 113z"/>
<path style="fill:#a1a1a1; stroke:none;" d="M18 113L19 114L18 113M20 113L21 114L20 113z"/>
<path style="fill:#303030; stroke:none;" d="M29 113L30 114L29 113z"/>
<path style="fill:#606060; stroke:none;" d="M30 113L31 114L30 113z"/>
<path style="fill:#a1a1a1; stroke:none;" d="M31 113L32 114L31 113z"/>
<path style="fill:#606060; stroke:none;" d="M32.6667 113.333L33.3333 113.667L32.6667 113.333z"/>
<path style="fill:#303030; stroke:none;" d="M34 113L34 114L38 114L34 113z"/>
<path style="fill:#606060; stroke:none;" d="M38 113L39 114L38 113z"/>
<path style="fill:#a1a1a1; stroke:none;" d="M39 113L40 114L39 113z"/>
<path style="fill:#303030; stroke:none;" d="M49 113L50 114L49 113M65 113L66 114L65 113z"/>
<path style="fill:#a1a1a1; stroke:none;" d="M110 113L110 116L111 116L110 113z"/>
<path style="fill:#303030; stroke:none;" d="M144 113L145 114L144 113z"/>
<path style="fill:#a1a1a1; stroke:none;" d="M146 113L147 114L146 113z"/>
<path style="fill:#303030; stroke:none;" d="M150 113L151 114L150 113z"/>
<path style="fill:#606060; stroke:none;" d="M163 113L164 114L163 113z"/>
<path style="fill:#a1a1a1; stroke:none;" d="M170 113L171 114L170 113z"/>
<path style="fill:#606060; stroke:none;" d="M171 113L172 114L171 113z"/>
<path style="fill:#303030; stroke:none;" d="M172 113L173 114L172 113M174 113L175 114L174 113z"/>
<path style="fill:#606060; stroke:none;" d="M175 113L176 114L175 113M179 113L180 114L179 113M185 113L186 114L185 113M15 114L16 115L15 114M19 114L20 115L19 114z"/>
<path style="fill:#303030; stroke:none;" d="M22 114L23 115L22 114z"/>
<path style="fill:#606060; stroke:none;" d="M42 114L43 115L42 114M50 114L51 115L50 114z"/>
<path style="fill:#a1a1a1; stroke:none;" d="M54 114L55 115L54 114M65 114L65 116L67 116L65 114M112.333 114.667L112.667 115.333L112.333 114.667M163 114L164 115L163 114z"/>
<path style="fill:#606060; stroke:none;" d="M177 114L178 115L177 114z"/>
<path style="fill:#303030; stroke:none;" d="M183 114L184 115L183 114z"/>
<path style="fill:#a1a1a1; stroke:none;" d="M184 114L185 115L184 114z"/>
<path style="fill:#303030; stroke:none;" d="M17 115L18 116L17 115M20 115L21 116L20 115z"/>
<path style="fill:#a1a1a1; stroke:none;" d="M23 115L24 116L23 115M41.3333 115.667L41.6667 116.333L41.3333 115.667M52 115L53 116L52 115M56.6667 115.333L57.3333 115.667L56.6667 115.333z"/>
<path style="fill:#606060; stroke:none;" d="M58.6667 115.333L59.3333 115.667L58.6667 115.333z"/>
<path style="fill:#303030; stroke:none;" d="M60.6667 115.333L61.3333 115.667L60.6667 115.333z"/>
<path style="fill:#606060; stroke:none;" d="M62 115L63 116L62 115z"/>
<path style="fill:#303030; stroke:none;" d="M63 115L64 116L63 115z"/>
<path style="fill:#606060; stroke:none;" d="M145 115L146 116L145 115z"/>
<path style="fill:#a1a1a1; stroke:none;" d="M164 115L165 116L164 115z"/>
<path style="fill:#303030; stroke:none;" d="M166 115L167 116L166 115z"/>
<path style="fill:#606060; stroke:none;" d="M167 115L168 116L167 115z"/>
<path style="fill:#a1a1a1; stroke:none;" d="M168 115L168 116L173 116L168 115z"/>
<path style="fill:#606060; stroke:none;" d="M173 115L174 116L173 115z"/>
<path style="fill:#303030; stroke:none;" d="M174 115L175 116L174 115M181 115L182 116L181 115z"/>
<path style="fill:#a1a1a1; stroke:none;" d="M182 115L183 116L182 115z"/>
<path style="fill:#606060; stroke:none;" d="M19.6667 116.333L20.3333 116.667L19.6667 116.333z"/>
<path style="fill:#a1a1a1; stroke:none;" d="M25 116L26 117L25 116M49 116L50 117L49 116z"/>
<path style="fill:#606060; stroke:none;" d="M50 116L50 117L53 117L50 116z"/>
<path style="fill:#303030; stroke:none;" d="M53 116L54 117L53 116z"/>
<path style="fill:#fcfcfc; stroke:none;" d="M65 116L65 117L76 124L84 125L84 124L65 116z"/>
<path style="fill:#606060; stroke:none;" d="M110 116L111 117L110 116z"/>
<path style="fill:#a1a1a1; stroke:none;" d="M142 116L143 117L142 116z"/>
<path style="fill:#606060; stroke:none;" d="M162 116L163 117L162 116z"/>
<path style="fill:#a1a1a1; stroke:none;" d="M163.333 116.667L163.667 117.333L163.333 116.667z"/>
<path style="fill:#303030; stroke:none;" d="M179 116L180 117L179 116z"/>
<path style="fill:#a1a1a1; stroke:none;" d="M180 116L181 117L180 116M26 117L27 118L26 117z"/>
<path style="fill:#606060; stroke:none;" d="M38 117L39 118L38 117z"/>
<path style="fill:#a1a1a1; stroke:none;" d="M39.6667 117.333L40.3333 117.667L39.6667 117.333M45 117L46 118L45 117z"/>
<path style="fill:#606060; stroke:none;" d="M46 117L47 118L46 117z"/>
<path style="fill:#303030; stroke:none;" d="M47 117L48 118L47 117z"/>
<path style="fill:#a1a1a1; stroke:none;" d="M65 117L64 126L65 126L65 117z"/>
<path style="fill:#303030; stroke:none;" d="M66 120L67 120L69 119L69 118L67 117L66 120z"/>
<path style="fill:#a1a1a1; stroke:none;" d="M69 117L70 118L69 117z"/>
<path style="fill:#303030; stroke:none;" d="M110 117L111 118L110 117M113 117L114 118L113 117M141 117L142 118L141 117M144 117L145 118L144 117M161 117L162 118L161 117z"/>
<path style="fill:#606060; stroke:none;" d="M164 117L165 118L164 117z"/>
<path style="fill:#303030; stroke:none;" d="M165.667 117.333L166.333 117.667L165.667 117.333z"/>
<path style="fill:#606060; stroke:none;" d="M177 117L178 118L177 117z"/>
<path style="fill:#a1a1a1; stroke:none;" d="M178 117L179 118L178 117z"/>
<path style="fill:#303030; stroke:none;" d="M27 118L28 119L27 118z"/>
<path style="fill:#a1a1a1; stroke:none;" d="M38 118L37 120L39 120L38 118M43 118L44 119L43 118z"/>
<path style="fill:#030303; stroke:none;" d="M67 118L63 127C67.1297 138.345 73.9433 147.769 85 153L89 144L91 128L86 130L87 127L76 125L74 124L72 120L69 121L67 118z"/>
<path style="fill:#a1a1a1; stroke:none;" d="M71 118L72 119L71 118M110 118L111 119L110 118M113 118L114 119L113 118M170 118L170 119L174 119L170 118M27 122L36 120C32.5391 118.562 29.2201 118.858 27 122z"/>
<path style="fill:#fcfcfc; stroke:none;" d="M36 119L37 120L36 119z"/>
<path style="fill:#303030; stroke:none;" d="M39 119L40 120L39 119z"/>
<path style="fill:#606060; stroke:none;" d="M42 119L43 120L42 119M69 119L70 120L69 119z"/>
<path style="fill:#303030; stroke:none;" d="M70 119L69 121L71 121L70 119z"/>
<path style="fill:#606060; stroke:none;" d="M73 119L74 120L73 119M109 119L110 120L109 119z"/>
<path style="fill:#303030; stroke:none;" d="M114 119L115 120L114 119z"/>
<path style="fill:#a1a1a1; stroke:none;" d="M140 119L141 120L140 119z"/>
<path style="fill:#606060; stroke:none;" d="M143 119L144 120L143 119z"/>
<path style="fill:#fcfcfc; stroke:none;" d="M31 120L31 121L35 121L31 120z"/>
<path style="fill:#606060; stroke:none;" d="M35 120L36 121L35 120z"/>
<path style="fill:#303030; stroke:none;" d="M36 120L37 121L36 120z"/>
<path style="fill:#a1a1a1; stroke:none;" d="M72 120L73 121L72 120z"/>
<path style="fill:#606060; stroke:none;" d="M75 120L76 121L75 120z"/>
<path style="fill:#303030; stroke:none;" d="M108 120L109 121L108 120z"/>
<path style="fill:#606060; stroke:none;" d="M115 120L116 121L115 120z"/>
<path style="fill:#303030; stroke:none;" d="M139 120L140 121L139 120M143.333 120.667L143.667 121.333L143.333 120.667z"/>
<path style="fill:#606060; stroke:none;" d="M77 121L78 122L77 121z"/>
<path style="fill:#303030; stroke:none;" d="M107 121L108 122L107 121z"/>
<path style="fill:#606060; stroke:none;" d="M111 121L112 122L111 121z"/>
<path style="fill:#a1a1a1; stroke:none;" d="M116 121L117 122L116 121z"/>
<path style="fill:#303030; stroke:none;" d="M141 121L139 124L141 121z"/>
<path style="fill:#a1a1a1; stroke:none;" d="M29 122L30 123L29 122z"/>
<path style="fill:#606060; stroke:none;" d="M73 122L74 123L73 122z"/>
<path style="fill:#303030; stroke:none;" d="M74 122L74 124L76 122L74 122z"/>
<path style="fill:#606060; stroke:none;" d="M79 122L80 123L79 122z"/>
<path style="fill:#303030; stroke:none;" d="M106 122L107 123L106 122z"/>
<path style="fill:#a1a1a1; stroke:none;" d="M110 122L111 123L110 122z"/>
<path style="fill:#030303; stroke:none;" d="M95 130L95 131C103.26 134.381 109.331 138.227 112 126L113 126L113 133C116.16 133.434 121.748 136.348 124.677 134.847C131.82 131.189 115.996 123.427 113 123.133C107.491 122.592 101.533 129.701 95 130z"/>
<path style="fill:#a1a1a1; stroke:none;" d="M113 122L114 123L113 122M118 122L119 123L118 122z"/>
<path style="fill:#606060; stroke:none;" d="M119 122L120 123L119 122z"/>
<path style="fill:#a1a1a1; stroke:none;" d="M138 122L138 125L139 125L138 122z"/>
<path style="fill:#030303; stroke:none;" d="M141 122L138 126C140.893 125.859 141.987 124.89 141 122z"/>
<path style="fill:#a1a1a1; stroke:none;" d="M143 122L144 123L143 122z"/>
<path style="fill:#606060; stroke:none;" d="M31 123L32 124L31 123M64 123L65 124L64 123z"/>
<path style="fill:#303030; stroke:none;" d="M77 123L76 125L78 125L77 123z"/>
<path style="fill:#a1a1a1; stroke:none;" d="M78 123L79 124L78 123M81 123L82 124L81 123z"/>
<path style="fill:#303030; stroke:none;" d="M82 123L83 124L82 123z"/>
<path style="fill:#606060; stroke:none;" d="M105 123L106 124L105 123z"/>
<path style="fill:#303030; stroke:none;" d="M114 123L115 124L114 123z"/>
<path style="fill:#a1a1a1; stroke:none;" d="M115 123L116 124L115 123z"/>
<path style="fill:#303030; stroke:none;" d="M121 123L122 124L121 123z"/>
<path style="fill:#fcfcfc; stroke:none;" d="M138 123L139 124L138 123z"/>
<path style="fill:#303030; stroke:none;" d="M161 123L162 124L161 123z"/>
<path style="fill:#a1a1a1; stroke:none;" d="M32 124L33 125L32 124z"/>
<path style="fill:#303030; stroke:none;" d="M33 124L34 125L33 124z"/>
<path style="fill:#606060; stroke:none;" d="M65 124L66 125L65 124z"/>
<path style="fill:#303030; stroke:none;" d="M79 124L81 126L79 124z"/>
<path style="fill:#a1a1a1; stroke:none;" d="M80 124L81 125L80 124M84.3333 124.667L84.6667 125.333L84.3333 124.667z"/>
<path style="fill:#303030; stroke:none;" d="M85 124L86 125L85 124z"/>
<path style="fill:#a1a1a1; stroke:none;" d="M104 124L105 125L104 124z"/>
<path style="fill:#606060; stroke:none;" d="M116 124L117 125L116 124M122 124L123 125L122 124z"/>
<path style="fill:#fcfcfc; stroke:none;" d="M134 127L138 124L134 127z"/>
<path style="fill:#303030; stroke:none;" d="M144 124L145 125L144 124z"/>
<path style="fill:#606060; stroke:none;" d="M161 124L162 125L161 124z"/>
<path style="fill:#a1a1a1; stroke:none;" d="M34 125L35 126L34 125z"/>
<path style="fill:#303030; stroke:none;" d="M35 125L36 126L35 125M63 125L64 126L63 125M65 125L66 126L65 125z"/>
<path style="fill:#a1a1a1; stroke:none;" d="M81 125L82 126L81 125z"/>
<path style="fill:#303030; stroke:none;" d="M83 125L84 126L83 125z"/>
<path style="fill:#fcfcfc; stroke:none;" d="M85.6667 125.333L86.3333 125.667L85.6667 125.333z"/>
<path style="fill:#a1a1a1; stroke:none;" d="M87 125L88 126L87 125z"/>
<path style="fill:#606060; stroke:none;" d="M88 125L89 126L88 125z"/>
<path style="fill:#303030; stroke:none;" d="M89 125L90 126L89 125z"/>
<path style="fill:#606060; stroke:none;" d="M102 125L103 126L102 125M118 125L119 126L118 125z"/>
<path style="fill:#a1a1a1; stroke:none;" d="M123 125L124 126L123 125z"/>
<path style="fill:#303030; stroke:none;" d="M134 125L135 126L134 125z"/>
<path style="fill:#606060; stroke:none;" d="M144 125L145 126L144 125z"/>
<path style="fill:#a1a1a1; stroke:none;" d="M161.333 125.667L161.667 126.333L161.333 125.667M36 126L37 127L36 126z"/>
<path style="fill:#606060; stroke:none;" d="M62 126L63 127L62 126z"/>
<path style="fill:#fcfcfc; stroke:none;" d="M63 126L64 127L63 126z"/>
<path style="fill:#606060; stroke:none;" d="M64 126L65 127L64 126z"/>
<path style="fill:#303030; stroke:none;" d="M86 126L87 127L86 126z"/>
<path style="fill:#a1a1a1; stroke:none;" d="M91 126L92 127L91 126z"/>
<path style="fill:#606060; stroke:none;" d="M92 126L93 127L92 126z"/>
<path style="fill:#303030; stroke:none;" d="M93 126L93 127L96 127L93 126z"/>
<path style="fill:#606060; stroke:none;" d="M100 126L101 127L100 126z"/>
<path style="fill:#a1a1a1; stroke:none;" d="M106 126L107 127L106 126z"/>
<path style="fill:#606060; stroke:none;" d="M112 126L113 127L112 126z"/>
<path style="fill:#303030; stroke:none;" d="M120 126L121 127L120 126z"/>
<path style="fill:#606060; stroke:none;" d="M121 126L122 127L121 126z"/>
<path style="fill:#a1a1a1; stroke:none;" d="M125 126L126 127L125 126M133 126L134 127L133 126z"/>
<path style="fill:#606060; stroke:none;" d="M138 126L137 128L138 126z"/>
<path style="fill:#303030; stroke:none;" d="M140 126L141 127L140 126z"/>
<path style="fill:#a1a1a1; stroke:none;" d="M144 126L145 127L144 126M38 127L39 128L38 127M61 127L63 129L61 127z"/>
<path style="fill:#fcfcfc; stroke:none;" d="M62 127L63 128L62 127z"/>
<path style="fill:#a1a1a1; stroke:none;" d="M87 127L88 128L87 127M104 127L105 128L104 127z"/>
<path style="fill:#303030; stroke:none;" d="M105 127L106 128L105 127z"/>
<path style="fill:#fcfcfc; stroke:none;" d="M112 127L112 130L113 130L112 127z"/>
<path style="fill:#a1a1a1; stroke:none;" d="M123 127L124 128L123 127M127.667 127.333L128.333 127.667L127.667 127.333z"/>
<path style="fill:#606060; stroke:none;" d="M129 127L130 128L129 127z"/>
<path style="fill:#a1a1a1; stroke:none;" d="M130.667 127.333L131.333 127.667L130.667 127.333M134 127L135 128L134 127z"/>
<path style="fill:#030303; stroke:none;" d="M135 127L133 132L143 131C142.18 127.173 138.399 127.914 135 127z"/>
<path style="fill:#303030; stroke:none;" d="M136 127L137 128L136 127z"/>
<path style="fill:#a1a1a1; stroke:none;" d="M138 127L138 128L141 128L138 127z"/>
<path style="fill:#606060; stroke:none;" d="M141 127L142 128L141 127z"/>
<path style="fill:#303030; stroke:none;" d="M142 127L143 128L142 127z"/>
<path style="fill:#a1a1a1; stroke:none;" d="M40 128L41 129L40 128z"/>
<path style="fill:#303030; stroke:none;" d="M41 128L42 129L41 128z"/>
<path style="fill:#606060; stroke:none;" d="M59 128L60 129L59 128M86 128L86 129L86 130L89 129L89 128L86 128z"/>
<path style="fill:#fcfcfc; stroke:none;" d="M87 128L88 129L87 128z"/>
<path style="fill:#606060; stroke:none;" d="M91 128L92 129L91 128z"/>
<path style="fill:#a1a1a1; stroke:none;" d="M102 128L103 129L102 128z"/>
<path style="fill:#303030; stroke:none;" d="M103 128L104 129L103 128M111 128L112 129L111 128z"/>
<path style="fill:#606060; stroke:none;" d="M143 128L144 129L143 128z"/>
<path style="fill:#303030; stroke:none;" d="M160 128L161 129L160 128z"/>
<path style="fill:#a1a1a1; stroke:none;" d="M42 129L43 130L42 129z"/>
<path style="fill:#303030; stroke:none;" d="M43 129L44 130L43 129z"/>
<path style="fill:#606060; stroke:none;" d="M57 129L58 130L57 129z"/>
<path style="fill:#a1a1a1; stroke:none;" d="M63 129L64 130L63 129M94 129L95 130L94 129M96.6667 129.333L97.3333 129.667L96.6667 129.333z"/>
<path style="fill:#606060; stroke:none;" d="M98.6667 129.333L99.3333 129.667L98.6667 129.333z"/>
<path style="fill:#303030; stroke:none;" d="M100 129L101 130L100 129z"/>
<path style="fill:#606060; stroke:none;" d="M111 129L113 132L111 129z"/>
<path style="fill:#303030; stroke:none;" d="M125 129L126 130L125 129M133.333 129.667L133.667 130.333L133.333 129.667z"/>
<path style="fill:#a1a1a1; stroke:none;" d="M143.333 129.667L143.667 130.333L143.333 129.667z"/>
<path style="fill:#606060; stroke:none;" d="M160 129L161 130L160 129M45 130L46 131L45 130z"/>
<path style="fill:#303030; stroke:none;" d="M54 130L55 131L54 130z"/>
<path style="fill:#a1a1a1; stroke:none;" d="M55 130L56 131L55 130M64 130L65 131L64 130M92.3333 130.667L92.6667 131.333L92.3333 130.667z"/>
<path style="fill:#606060; stroke:none;" d="M94 130L95 131L94 130z"/>
<path style="fill:#a1a1a1; stroke:none;" d="M112 130L113 131L112 130z"/>
<path style="fill:#606060; stroke:none;" d="M137 130L138 131L137 130z"/>
<path style="fill:#a1a1a1; stroke:none;" d="M138 132L142 133L143 132L138 132z"/>
<path style="fill:#303030; stroke:none;" d="M145.333 130.667L145.667 131.333L145.333 130.667z"/>
<path style="fill:#a1a1a1; stroke:none;" d="M48 131L49 132L48 131z"/>
<path style="fill:#606060; stroke:none;" d="M49.6667 131.333L50.3333 131.667L49.6667 131.333z"/>
<path style="fill:#a1a1a1; stroke:none;" d="M51.6667 131.333L52.3333 131.667L51.6667 131.333M95 131L96 132L95 131z"/>
<path style="fill:#303030; stroke:none;" d="M96 131L97 132L96 131z"/>
<path style="fill:#606060; stroke:none;" d="M127.333 131.667L127.667 132.333L127.333 131.667z"/>
<path style="fill:#a1a1a1; stroke:none;" d="M132 131L133 132L132 131z"/>
<path style="fill:#606060; stroke:none;" d="M134 131L135 132L134 131M139.667 131.333L140.333 131.667L139.667 131.333z"/>
<path style="fill:#303030; stroke:none;" d="M65 132L66 133L65 132z"/>
<path style="fill:#a1a1a1; stroke:none;" d="M98 132L99 133L98 132z"/>
<path style="fill:#606060; stroke:none;" d="M99 132L100 133L99 132z"/>
<path style="fill:#a1a1a1; stroke:none;" d="M110 132L111 133L110 132M112 132L113 133L112 132z"/>
<path style="fill:#606060; stroke:none;" d="M132.667 132.333L133.333 132.667L132.667 132.333z"/>
<path style="fill:#303030; stroke:none;" d="M138 132L138 135L139 135L138 132z"/>
<path style="fill:#030303; stroke:none;" d="M139 132L139 135L141 132L139 132z"/>
<path style="fill:#606060; stroke:none;" d="M159 132L160 133L159 132z"/>
<path style="fill:#a1a1a1; stroke:none;" d="M65 133L66 134L65 133M93 133L92 135L93 133z"/>
<path style="fill:#303030; stroke:none;" d="M109 133L110 134L109 133M116 133L117 134L116 133z"/>
<path style="fill:#a1a1a1; stroke:none;" d="M127 133L128 134L127 133z"/>
<path style="fill:#303030; stroke:none;" d="M135 133L136 134L135 133z"/>
<path style="fill:#030303; stroke:none;" d="M136 133L133 140L137 140L136 133z"/>
<path style="fill:#303030; stroke:none;" d="M66 134L67 135L66 134z"/>
<path style="fill:#030303; stroke:none;" d="M93 134L91 139L94 140L93 144C90.1116 144.501 92.5177 146.708 94 148L94 138L94 137L96 135L93 134z"/>
<path style="fill:#303030; stroke:none;" d="M94.6667 134.333L95.3333 134.667L94.6667 134.333z"/>
<path style="fill:#a1a1a1; stroke:none;" d="M96 134L97 135L96 134z"/>
<path style="fill:#303030; stroke:none;" d="M108 134L109 135L108 134z"/>
<path style="fill:#a1a1a1; stroke:none;" d="M119 134L120 135L119 134z"/>
<path style="fill:#303030; stroke:none;" d="M120 134L121 135L120 134M126 134L127 135L126 134z"/>
<path style="fill:#a1a1a1; stroke:none;" d="M134 134L134 137L135 137L134 134M140 134L141 135L140 134M144 134L145 135L144 134z"/>
<path style="fill:#303030; stroke:none;" d="M158 134L159 135L158 134M91.6667 135.333L92.3333 135.667L91.6667 135.333z"/>
<path style="fill:#606060; stroke:none;" d="M96 135L97 136L96 135z"/>
<path style="fill:#a1a1a1; stroke:none;" d="M100 135L101 136L100 135z"/>
<path style="fill:#303030; stroke:none;" d="M101 135L102 136L101 135M105 135L106 136L105 135z"/>
<path style="fill:#606060; stroke:none;" d="M106 135L107 136L106 135z"/>
<path style="fill:#a1a1a1; stroke:none;" d="M107 135L108 136L107 135M121 135L122 136L121 135z"/>
<path style="fill:#606060; stroke:none;" d="M125 135L126 136L125 135z"/>
<path style="fill:#303030; stroke:none;" d="M136 135L137 136L136 135z"/>
<path style="fill:#a1a1a1; stroke:none;" d="M138.667 135.333L139.333 135.667L138.667 135.333z"/>
<path style="fill:#606060; stroke:none;" d="M144 135L145 136L144 135z"/>
<path style="fill:#a1a1a1; stroke:none;" d="M158 135L159 136L158 135M67 136L68 137L67 136z"/>
<path style="fill:#606060; stroke:none;" d="M89 136L90 137L89 136M91 136L93 138L91 136z"/>
<path style="fill:#a1a1a1; stroke:none;" d="M95 136L96 137L95 136M123 136L124 137L123 136z"/>
<path style="fill:#606060; stroke:none;" d="M143 136L144 137L143 136M68 137L69 138L68 137z"/>
<path style="fill:#a1a1a1; stroke:none;" d="M90 137L91 138L90 137z"/>
<path style="fill:#fcfcfc; stroke:none;" d="M91 137L92 138L91 137z"/>
<path style="fill:#303030; stroke:none;" d="M94 137L95 138L94 137M134 137L135 138L134 137z"/>
<path style="fill:#606060; stroke:none;" d="M137.333 137.667L137.667 138.333L137.333 137.667M139 137L140 138L139 137M142 137L143 138L142 137z"/>
<path style="fill:#a1a1a1; stroke:none;" d="M157 137L158 138L157 137z"/>
<path style="fill:#606060; stroke:none;" d="M89 138L90 139L89 138z"/>
<path style="fill:#fcfcfc; stroke:none;" d="M90 138L93 141L90 138z"/>
<path style="fill:#606060; stroke:none;" d="M95 138L96 139L95 138z"/>
<path style="fill:#a1a1a1; stroke:none;" d="M133 138L134 139L133 138z"/>
<path style="fill:#030303; stroke:none;" d="M139 138L134 146L136 145L134 147L134 148L137 149L135 152L137 151L137 152L132 163L134 163L128 179C141.612 175.447 145.765 149.293 139 138z"/>
<path style="fill:#a1a1a1; stroke:none;" d="M141 138L142 139L141 138z"/>
<path style="fill:#606060; stroke:none;" d="M156 138L157 139L156 138z"/>
<path style="fill:#303030; stroke:none;" d="M69 139L70 140L69 139z"/>
<path style="fill:#a1a1a1; stroke:none;" d="M89.6667 139.333L90.3333 139.667L89.6667 139.333z"/>
<path style="fill:#303030; stroke:none;" d="M92 139L93 140L92 139z"/>
<path style="fill:#a1a1a1; stroke:none;" d="M104 139L105 140L104 139z"/>
<path style="fill:#606060; stroke:none;" d="M105.667 139.333L106.333 139.667L105.667 139.333z"/>
<path style="fill:#303030; stroke:none;" d="M107 139L108 140L107 139z"/>
<path style="fill:#030303; stroke:none;" d="M112 139C109.64 139.186 107.33 139.494 104.999 139.924C87.7443 143.114 107.994 159.42 111.682 146.856C112.39 144.443 112 141.489 112 139z"/>
<path style="fill:#a1a1a1; stroke:none;" d="M112 139L113 140L112 139M132 139L133 140L132 139z"/>
<path style="fill:#303030; stroke:none;" d="M135 139L136 140L135 139z"/>
<path style="fill:#fcfcfc; stroke:none;" d="M137 139L129.566 151.682L118 154L118 155L130 155C129.819 162.509 126.569 166.448 121 171L128 176L129 176L136 153L134 154L134 153L136 148L133 150L137 139z"/>
<path style="fill:#303030; stroke:none;" d="M138 139L139 140L138 139z"/>
<path style="fill:#606060; stroke:none;" d="M141 139L140 141L142 141L141 139z"/>
<path style="fill:#303030; stroke:none;" d="M155 139L156 140L155 139z"/>
<path style="fill:#a1a1a1; stroke:none;" d="M69 140L70 141L69 140z"/>
<path style="fill:#303030; stroke:none;" d="M88.3333 140.667L88.6667 141.333L88.3333 140.667z"/>
<path style="fill:#fcfcfc; stroke:none;" d="M89 140L92 143L89 140z"/>
<path style="fill:#606060; stroke:none;" d="M90 140L92 142L90 140z"/>
<path style="fill:#303030; stroke:none;" d="M91 140L92 141L91 140z"/>
<path style="fill:#606060; stroke:none;" d="M93 140L94 141L93 140z"/>
<path style="fill:#303030; stroke:none;" d="M95 140L96 141L95 140z"/>
<path style="fill:#a1a1a1; stroke:none;" d="M100 140L101 141L100 140z"/>
<path style="fill:#606060; stroke:none;" d="M101 140L102 141L101 140M112 140L113 141L112 140z"/>
<path style="fill:#a1a1a1; stroke:none;" d="M117 140L118 141L117 140z"/>
<path style="fill:#606060; stroke:none;" d="M118 140L119 141L118 140z"/>
<path style="fill:#303030; stroke:none;" d="M119 140L120 141L119 140z"/>
<path style="fill:#030303; stroke:none;" d="M114 153C118.887 153.806 138.307 152.622 130.806 142.603C128.432 139.433 117.416 139.366 115.052 142.589C113.264 145.027 114.065 150.105 114 153z"/>
<path style="fill:#303030; stroke:none;" d="M123 140L124 141L123 140z"/>
<path style="fill:#606060; stroke:none;" d="M124.667 140.333L125.333 140.667L124.667 140.333z"/>
<path style="fill:#a1a1a1; stroke:none;" d="M126.667 140.333L127.333 140.667L126.667 140.333z"/>
<path style="fill:#606060; stroke:none;" d="M132 140L133 141L132 140z"/>
<path style="fill:#303030; stroke:none;" d="M133 140L134 141L133 140M137 140L138 141L137 140z"/>
<path style="fill:#a1a1a1; stroke:none;" d="M89 141L90 142L89 141M95 141L96 142L95 141z"/>
<path style="fill:#303030; stroke:none;" d="M98 141L99 142L98 141M114 141L115 142L114 141z"/>
<path style="fill:#606060; stroke:none;" d="M131 141L132 142L131 141z"/>
<path style="fill:#a1a1a1; stroke:none;" d="M141 141L141 146L142 146L143 141L141 141M154 141L155 142L154 141M70 142L71 143L70 142z"/>
<path style="fill:#303030; stroke:none;" d="M90.3333 142.667L90.6667 143.333L90.3333 142.667M92.3333 142.667L92.6667 143.333L92.3333 142.667z"/>
<path style="fill:#a1a1a1; stroke:none;" d="M94 142L95 143L94 142M97 142L98 143L97 142M113 142L114 143L113 142z"/>
<path style="fill:#303030; stroke:none;" d="M131 142L132 143L131 142M135 142L136 143L135 142z"/>
<path style="fill:#fcfcfc; stroke:none;" d="M142.333 142.667L142.667 143.333L142.333 142.667z"/>
<path style="fill:#303030; stroke:none;" d="M143.333 142.667L143.667 143.333L143.333 142.667z"/>
<path style="fill:#606060; stroke:none;" d="M153 142L154 143L153 142M71 143L72 144L71 143M87 143L87 147L88 147L87 143z"/>
<path style="fill:#303030; stroke:none;" d="M94 143L95 144L94 143z"/>
<path style="fill:#606060; stroke:none;" d="M97 143L97 146L98 146L97 143M113.333 143.667L113.667 144.333L113.333 143.667z"/>
<path style="fill:#a1a1a1; stroke:none;" d="M134 143L135 144L134 143z"/>
<path style="fill:#606060; stroke:none;" d="M152 143L153 144L152 143M72 144L73 145L72 144z"/>
<path style="fill:#a1a1a1; stroke:none;" d="M88 144L89 145L88 144M90 144L91 145L90 144z"/>
<path style="fill:#303030; stroke:none;" d="M134 144L135 145L134 144M151 144L152 145L151 144z"/>
<path style="fill:#606060; stroke:none;" d="M73 145L74 146L73 145z"/>
<path style="fill:#a1a1a1; stroke:none;" d="M113 145L114 146L113 145z"/>
<path style="fill:#303030; stroke:none;" d="M135.333 145.667L135.667 146.333L135.333 145.667z"/>
<path style="fill:#a1a1a1; stroke:none;" d="M143 145L144 146L143 145z"/>
<path style="fill:#606060; stroke:none;" d="M144 145L145 146L144 145M74 146L75 147L74 146z"/>
<path style="fill:#a1a1a1; stroke:none;" d="M91 146L92 147L91 146M94 146L95 147L94 146M97 146L98 147L97 146M112 146L112 149L113 149L112 146z"/>
<path style="fill:#303030; stroke:none;" d="M114.333 146.667L114.667 147.333L114.333 146.667z"/>
<path style="fill:#a1a1a1; stroke:none;" d="M134 146L135 147L134 146z"/>
<path style="fill:#606060; stroke:none;" d="M141 146L141 149L142 149L141 146z"/>
<path style="fill:#303030; stroke:none;" d="M144 146L145 147L144 146z"/>
<path style="fill:#a1a1a1; stroke:none;" d="M75 147L76 148L75 147M87.3333 147.667L87.6667 148.333L87.3333 147.667M92 147L93 148L92 147z"/>
<path style="fill:#303030; stroke:none;" d="M131 147L132 148L131 147z"/>
<path style="fill:#a1a1a1; stroke:none;" d="M133 147L134 148L133 147M149 147L150 148L149 147z"/>
<path style="fill:#303030; stroke:none;" d="M77 148L78 149L77 148z"/>
<path style="fill:#a1a1a1; stroke:none;" d="M93 148L95 150L93 148z"/>
<path style="fill:#606060; stroke:none;" d="M94 148L95 149L94 148z"/>
<path style="fill:#303030; stroke:none;" d="M98 148L99 149L98 148z"/>
<path style="fill:#a1a1a1; stroke:none;" d="M131.333 148.667L131.667 149.333L131.333 148.667z"/>
<path style="fill:#303030; stroke:none;" d="M133.667 148.333L134.333 148.667L133.667 148.333M136 148L137 149L136 148z"/>
<path style="fill:#606060; stroke:none;" d="M143 148L144 149L143 148M148 148L149 149L148 148z"/>
<path style="fill:#a1a1a1; stroke:none;" d="M78 149L79 150L78 149z"/>
<path style="fill:#303030; stroke:none;" d="M86 149L87 150L86 149z"/>
<path style="fill:#a1a1a1; stroke:none;" d="M98 149L99 150L98 149z"/>
<path style="fill:#303030; stroke:none;" d="M111 149L112 150L111 149z"/>
<path style="fill:#a1a1a1; stroke:none;" d="M133 149L134 150L133 149M135 149L136 150L135 149M141 149L141 154L142 154L141 149z"/>
<path style="fill:#303030; stroke:none;" d="M145 149L146 150L145 149z"/>
<path style="fill:#606060; stroke:none;" d="M147 149L148 150L147 149z"/>
<path style="fill:#303030; stroke:none;" d="M80 150L81 151L80 150z"/>
<path style="fill:#a1a1a1; stroke:none;" d="M86 150L87 151L86 150M88 150L89 151L88 150z"/>
<path style="fill:#303030; stroke:none;" d="M89 150L90 151L89 150z"/>
<path style="fill:#030303; stroke:none;" d="M88 156L84 155C84 168.276 88.9362 176.033 102 181C101.632 172.946 98.9893 162.407 95.6366 155.044C93.1237 149.526 88.4799 149.986 88 156z"/>
<path style="fill:#303030; stroke:none;" d="M92 150L93 151L92 150M99 150L100 151L99 150M107 150L108 151L107 150z"/>
<path style="fill:#606060; stroke:none;" d="M108 150L109 151L108 150z"/>
<path style="fill:#a1a1a1; stroke:none;" d="M109 150L110 151L109 150z"/>
<path style="fill:#303030; stroke:none;" d="M130 150L131 151L130 150M135 150L136 151L135 150M146 150L147 151L146 150z"/>
<path style="fill:#a1a1a1; stroke:none;" d="M81 151L82 152L81 151z"/>
<path style="fill:#606060; stroke:none;" d="M85 151L86 152L85 151M87 151L88 152L87 151z"/>
<path style="fill:#a1a1a1; stroke:none;" d="M94 151L95 152L94 151z"/>
<path style="fill:#303030; stroke:none;" d="M104 151L105 152L104 151z"/>
<path style="fill:#a1a1a1; stroke:none;" d="M105 151L106 152L105 151M113 151L114 152L113 151M130 151L131 152L130 151z"/>
<path style="fill:#303030; stroke:none;" d="M136 151L137 152L136 151z"/>
<path style="fill:#606060; stroke:none;" d="M83 152L84 153L83 152z"/>
<path style="fill:#303030; stroke:none;" d="M87.3333 152.667L87.6667 153.333L87.3333 152.667z"/>
<path style="fill:#a1a1a1; stroke:none;" d="M101.667 152.333L102.333 152.667L101.667 152.333z"/>
<path style="fill:#606060; stroke:none;" d="M129 152L130 153L129 152M134 152L135 153L134 152z"/>
<path style="fill:#a1a1a1; stroke:none;" d="M135.667 152.333L136.333 152.667L135.667 152.333M95 153L96 154L95 153M115 153L118 155L118 154L115 153z"/>
<path style="fill:#303030; stroke:none;" d="M116 153L117 154L116 153M120 153L121 154L120 153z"/>
<path style="fill:#606060; stroke:none;" d="M121.667 153.333L122.333 153.667L121.667 153.333z"/>
<path style="fill:#a1a1a1; stroke:none;" d="M123.667 153.333L124.333 153.667L123.667 153.333z"/>
<path style="fill:#606060; stroke:none;" d="M125.667 153.333L126.333 153.667L125.667 153.333z"/>
<path style="fill:#303030; stroke:none;" d="M127 153L128 154L127 153z"/>
<path style="fill:#a1a1a1; stroke:none;" d="M128 153L129 154L128 153M134 153L135 154L134 153M144 153L145 154L144 153M84 154L85 155L84 154z"/>
<path style="fill:#606060; stroke:none;" d="M85 154L86 155L85 154M87 154L86 156L87 154z"/>
<path style="fill:#303030; stroke:none;" d="M95 154L96 155L95 154z"/>
<path style="fill:#030303; stroke:none;" d="M99 154C99.0945 164.429 104.256 164.017 113 165C112.389 153.51 108.517 156.608 99 154z"/>
<path style="fill:#303030; stroke:none;" d="M100 154L101 155L100 154z"/>
<path style="fill:#606060; stroke:none;" d="M101 154L102 155L101 154z"/>
<path style="fill:#a1a1a1; stroke:none;" d="M106 154L107 155L106 154z"/>
<path style="fill:#303030; stroke:none;" d="M107 154L107 155L110 155L107 154z"/>
<path style="fill:#a1a1a1; stroke:none;" d="M110 154L111 155L110 154M135 154L136 155L135 154M143 154L144 155L143 154z"/>
<path style="fill:#303030; stroke:none;" d="M87 155L88 156L87 155M98 155L98 159L99 159L98 155M103.667 155.333L104.333 155.667L103.667 155.333z"/>
<path style="fill:#a1a1a1; stroke:none;" d="M112 155L113 156L112 155z"/>
<path style="fill:#606060; stroke:none;" d="M115.333 155.667L115.667 156.333L115.333 155.667z"/>
<path style="fill:#030303; stroke:none;" d="M116 155C115.849 158.512 114.209 163.237 115.862 166.517C121.175 177.064 129.482 161.058 130 156L116 155z"/>
<path style="fill:#303030; stroke:none;" d="M118 155L119 156L118 155z"/>
<path style="fill:#a1a1a1; stroke:none;" d="M119 155L119 156L126 156L119 155z"/>
<path style="fill:#606060; stroke:none;" d="M126 155L126 156L129 156L126 155z"/>
<path style="fill:#a1a1a1; stroke:none;" d="M129 155L130 156L129 155M96 156L97 157L96 156M134 156L135 157L134 156M83 157L83 162L84 162L83 157z"/>
<path style="fill:#606060; stroke:none;" d="M96 157L97 158L96 157z"/>
<path style="fill:#a1a1a1; stroke:none;" d="M113 157L113 160L114 160L113 157M115 157L116 158L115 157z"/>
<path style="fill:#303030; stroke:none;" d="M140 157L141 158L140 157z"/>
<path style="fill:#606060; stroke:none;" d="M140.333 158.667L140.667 159.333L140.333 158.667z"/>
<path style="fill:#a1a1a1; stroke:none;" d="M86 159L85 162L86 162L86 159z"/>
<path style="fill:#606060; stroke:none;" d="M87 159L88 160L87 159z"/>
<path style="fill:#a1a1a1; stroke:none;" d="M97 159L98 162L99 162L97 159z"/>
<path style="fill:#606060; stroke:none;" d="M98 159L99 160L98 159z"/>
<path style="fill:#303030; stroke:none;" d="M133 159L134 160L133 159z"/>
<path style="fill:#fcfcfc; stroke:none;" d="M86 160L93 168L86 160z"/>
<path style="fill:#a1a1a1; stroke:none;" d="M88 160L89 161L88 160z"/>
<path style="fill:#303030; stroke:none;" d="M115 160L116 161L115 160z"/>
<path style="fill:#606060; stroke:none;" d="M129 160L130 161L129 160z"/>
<path style="fill:#a1a1a1; stroke:none;" d="M132 160L133 161L132 160M140 160L140 165L141 165L140 160z"/>
<path style="fill:#606060; stroke:none;" d="M89 161L90 162L89 161M99 161L100 162L99 161z"/>
<path style="fill:#a1a1a1; stroke:none;" d="M114 161L115 162L114 161M129 161L130 162L129 161z"/>
<path style="fill:#606060; stroke:none;" d="M83.3333 162.667L83.6667 163.333L83.3333 162.667z"/>
<path style="fill:#303030; stroke:none;" d="M85 162L86 163L85 162z"/>
<path style="fill:#606060; stroke:none;" d="M98 162L99 163L98 162M112 162L113 163L112 162M114 162L115 163L114 162z"/>
<path style="fill:#303030; stroke:none;" d="M128 162L129 163L128 162z"/>
<path style="fill:#a1a1a1; stroke:none;" d="M131 162L132 163L131 162z"/>
<path style="fill:#303030; stroke:none;" d="M86 163L87 164L86 163z"/>
<path style="fill:#a1a1a1; stroke:none;" d="M90 163L91 164L90 163z"/>
<path style="fill:#303030; stroke:none;" d="M98.3333 163.667L98.6667 164.333L98.3333 163.667M101 163L102 164L101 163M112 163L113 164L112 163M114 163L115 164L114 163z"/>
<path style="fill:#a1a1a1; stroke:none;" d="M128 163L129 164L128 163z"/>
<path style="fill:#303030; stroke:none;" d="M131 163L132 166L133 166L134 163L131 163M83 164L84 165L83 164M91 164L92 165L91 164z"/>
<path style="fill:#606060; stroke:none;" d="M103 164L104 165L103 164z"/>
<path style="fill:#303030; stroke:none;" d="M109 164L109 165L112 165L109 164z"/>
<path style="fill:#606060; stroke:none;" d="M114 164L115 165L114 164z"/>
<path style="fill:#303030; stroke:none;" d="M127 164L128 165L127 164z"/>
<path style="fill:#a1a1a1; stroke:none;" d="M132 164L133 165L132 164z"/>
<path style="fill:#606060; stroke:none;" d="M83 165L84 166L83 165M89 165L90 166L89 165z"/>
<path style="fill:#a1a1a1; stroke:none;" d="M107 165L108 166L107 165M112 165L113 166L112 165M114 165L115 166L114 165z"/>
<path style="fill:#606060; stroke:none;" d="M131 165L132 166L131 165M140.333 165.667L140.667 166.333L140.333 165.667z"/>
<path style="fill:#a1a1a1; stroke:none;" d="M83 166L84 167L83 166z"/>
<path style="fill:#303030; stroke:none;" d="M90 166L91 167L90 166z"/>
<path style="fill:#606060; stroke:none;" d="M92 166L93 167L92 166z"/>
<path style="fill:#303030; stroke:none;" d="M101 166L103 169L101 166z"/>
<path style="fill:#030303; stroke:none;" d="M102 166C103.425 173.214 105.441 175.866 113 175L115 169L102 166z"/>
<path style="fill:#606060; stroke:none;" d="M103 166L104 167L103 166M126 166L127 167L126 166z"/>
<path style="fill:#a1a1a1; stroke:none;" d="M131 166L132 167L131 166z"/>
<path style="fill:#303030; stroke:none;" d="M91 167L92 168L91 167z"/>
<path style="fill:#606060; stroke:none;" d="M105 167L106 168L105 167z"/>
<path style="fill:#a1a1a1; stroke:none;" d="M106 167L107 168L106 167z"/>
<path style="fill:#303030; stroke:none;" d="M116 167L117 168L116 167z"/>
<path style="fill:#606060; stroke:none;" d="M131 167L132 168L131 167z"/>
<path style="fill:#303030; stroke:none;" d="M140 167L141 168L140 167z"/>
<path style="fill:#a1a1a1; stroke:none;" d="M84 168L85 169L84 168M92 168L94 170L92 168z"/>
<path style="fill:#606060; stroke:none;" d="M93 168L94 169L93 168z"/>
<path style="fill:#a1a1a1; stroke:none;" d="M99 168L100 169L99 168z"/>
<path style="fill:#303030; stroke:none;" d="M107 168L108 169L107 168z"/>
<path style="fill:#606060; stroke:none;" d="M108.667 168.333L109.333 168.667L108.667 168.333z"/>
<path style="fill:#a1a1a1; stroke:none;" d="M110 168L110 169L113 169L110 168z"/>
<path style="fill:#606060; stroke:none;" d="M113 168L114 169L113 168z"/>
<path style="fill:#a1a1a1; stroke:none;" d="M114 168L115 169L114 168z"/>
<path style="fill:#303030; stroke:none;" d="M124 168L125 169L124 168z"/>
<path style="fill:#a1a1a1; stroke:none;" d="M125 168L126 169L125 168M140 168L141 169L140 168z"/>
<path style="fill:#303030; stroke:none;" d="M85 169L86 170L85 169z"/>
<path style="fill:#606060; stroke:none;" d="M99 169L100 170L99 169M102 169L103 170L102 169z"/>
<path style="fill:#a1a1a1; stroke:none;" d="M117 169L118 170L117 169z"/>
<path style="fill:#606060; stroke:none;" d="M122 169L123 170L122 169z"/>
<path style="fill:#a1a1a1; stroke:none;" d="M130 169L131 170L130 169z"/>
<path style="fill:#303030; stroke:none;" d="M93.6667 170.333L94.3333 170.667L93.6667 170.333M102 170L103 171L102 170z"/>
<path style="fill:#606060; stroke:none;" d="M115.333 170.667L115.667 171.333L115.333 170.667z"/>
<path style="fill:#a1a1a1; stroke:none;" d="M119 170L119 171L122 172L119 170z"/>
<path style="fill:#303030; stroke:none;" d="M130 170L131 171L130 170z"/>
<path style="fill:#606060; stroke:none;" d="M139 170L140 171L139 170z"/>
<path style="fill:#a1a1a1; stroke:none;" d="M100 171L101 172L100 171M102 171L103 172L102 171z"/>
<path style="fill:#606060; stroke:none;" d="M112 171L113 172L112 171z"/>
<path style="fill:#a1a1a1; stroke:none;" d="M113.667 171.333L114.333 171.667L113.667 171.333z"/>
<path style="fill:#606060; stroke:none;" d="M118 171L119 172L118 171z"/>
<path style="fill:#030303; stroke:none;" d="M119 171C118.193 176.33 122.574 177.103 127 176L127 174L119 171z"/>
<path style="fill:#303030; stroke:none;" d="M120 171L121 172L120 171z"/>
<path style="fill:#606060; stroke:none;" d="M88 172L89 173L88 172z"/>
<path style="fill:#303030; stroke:none;" d="M100 172L101 173L100 172M123 172L124 173L123 172z"/>
<path style="fill:#a1a1a1; stroke:none;" d="M124 172L125 173L124 172M129 172L130 173L129 172M138 172L139 173L138 172z"/>
<path style="fill:#606060; stroke:none;" d="M90 173L91 174L90 173M103 173L104 174L103 173M112 173L113 174L112 173z"/>
<path style="fill:#303030; stroke:none;" d="M114 173L115 174L114 173z"/>
<path style="fill:#030303; stroke:none;" d="M115.667 173.333L116.333 173.667L115.667 173.333z"/>
<path style="fill:#a1a1a1; stroke:none;" d="M117.333 173.667L117.667 174.333L117.333 173.667z"/>
<path style="fill:#606060; stroke:none;" d="M126 173L127 174L126 173M129 173L130 174L129 173M137 173L138 174L137 173z"/>
<path style="fill:#303030; stroke:none;" d="M92 174L93 175L92 174z"/>
<path style="fill:#a1a1a1; stroke:none;" d="M101 174L102 175L101 174z"/>
<path style="fill:#303030; stroke:none;" d="M104 174L105 175L104 174M113 174L114 175L113 174z"/>
<path style="fill:#606060; stroke:none;" d="M115.667 174.333L116.333 174.667L115.667 174.333z"/>
<path style="fill:#303030; stroke:none;" d="M127 174L128 175L127 174M129 174L130 175L129 174M136 174L137 175L136 174M93 175L94 176L93 175M101 175L102 176L101 175z"/>
<path style="fill:#606060; stroke:none;" d="M105 175L106 176L105 175z"/>
<path style="fill:#303030; stroke:none;" d="M109 175L110 176L109 175z"/>
<path style="fill:#606060; stroke:none;" d="M110.667 175.333L111.333 175.667L110.667 175.333z"/>
<path style="fill:#a1a1a1; stroke:none;" d="M112 175L113 176L112 175z"/>
<path style="fill:#606060; stroke:none;" d="M118 175L119 176L118 175M127 175L128 176L127 175z"/>
<path style="fill:#303030; stroke:none;" d="M135 175L136 176L135 175z"/>
<path style="fill:#a1a1a1; stroke:none;" d="M93 176L94 177L93 176M119 176L120 177L119 176z"/>
<path style="fill:#606060; stroke:none;" d="M120 176L121 177L120 176z"/>
<path style="fill:#303030; stroke:none;" d="M121 176L122 177L121 176z"/>
<path style="fill:#606060; stroke:none;" d="M126 176L127 177L126 176M128 176L129 177L128 176M134 176L135 177L134 176M95 177L96 178L95 177z"/>
<path style="fill:#303030; stroke:none;" d="M128 177L129 178L128 177z"/>
<path style="fill:#a1a1a1; stroke:none;" d="M133 177L134 178L133 177M96 178L97 179L96 178M105 178L105 181L106 181L105 178z"/>
<path style="fill:#303030; stroke:none;" d="M106 178L107 179L106 178z"/>
<path style="fill:#a1a1a1; stroke:none;" d="M107 178L108 179L107 178M109 178L110 179L109 178z"/>
<path style="fill:#606060; stroke:none;" d="M110 178L111 179L110 178z"/>
<path style="fill:#a1a1a1; stroke:none;" d="M123 178L125 180L125 178L123 178z"/>
<path style="fill:#303030; stroke:none;" d="M130 178L131 179L130 178z"/>
<path style="fill:#a1a1a1; stroke:none;" d="M131 178L132 179L131 178z"/>
<path style="fill:#606060; stroke:none;" d="M98 179L99 180L98 179z"/>
<path style="fill:#030303; stroke:none;" d="M106 179L109 184L110 184L114 181L106 179z"/>
<path style="fill:#303030; stroke:none;" d="M111 179L112 180L111 179z"/>
<path style="fill:#606060; stroke:none;" d="M122 179L123 180L122 179z"/>
<path style="fill:#030303; stroke:none;" d="M123 179L120 182L121 183L123 179z"/>
<path style="fill:#606060; stroke:none;" d="M127 179L128 180L127 179z"/>
<path style="fill:#303030; stroke:none;" d="M128 179L129 180L128 179z"/>
<path style="fill:#a1a1a1; stroke:none;" d="M129 179L130 180L129 179z"/>
<path style="fill:#303030; stroke:none;" d="M113 180L114 181L113 180z"/>
<path style="fill:#a1a1a1; stroke:none;" d="M114 180L117 182L114 180z"/>
<path style="fill:#606060; stroke:none;" d="M120 180L121 181L120 180z"/>
<path style="fill:#303030; stroke:none;" d="M106 181L107 182L106 181z"/>
<path style="fill:#606060; stroke:none;" d="M114 181L115 182L114 181M119 181L120 182L119 181z"/>
<path style="fill:#a1a1a1; stroke:none;" d="M123 181L124 182L123 181z"/>
<path style="fill:#606060; stroke:none;" d="M107 182L108 183L107 182M111 182L112 183L111 182z"/>
<path style="fill:#a1a1a1; stroke:none;" d="M112 182L113 183L112 182M120 182L121 183L120 182z"/>
<path style="fill:#606060; stroke:none;" d="M122 182L123 183L122 182z"/>
<path style="fill:#a1a1a1; stroke:none;" d="M110 183L111 184L110 183M121 183L122 184L121 183z"/>
</svg>
