<?xml version="1.0" standalone="no"?>
<!DOCTYPE svg PUBLIC "-//W3C//DTD SVG 20010904//EN"
 "http://www.w3.org/TR/2001/REC-SVG-20010904/DTD/svg10.dtd">
<svg version="1.0" xmlns="http://www.w3.org/2000/svg"
 width="218.000000pt" height="231.000000pt" viewBox="0 0 218.000000 231.000000"
 preserveAspectRatio="xMidYMid meet">
<metadata>
Created by potrace 1.10, written by Peter Selinger 2001-2011
</metadata>
<g transform="translate(0.000000,231.000000) scale(0.100000,-0.100000)"
fill="#000000" stroke="none">
<path d="M485 2296 c-18 -13 -19 -18 -7 -60 21 -80 15 -136 -28 -256 -22 -61
-40 -129 -40 -149 0 -46 36 -117 72 -144 25 -19 28 -19 52 -3 31 20 32 30 6
63 -46 58 -44 94 9 243 47 131 39 290 -16 311 -30 11 -26 12 -48 -5z m63 -131
c4 -73 1 -91 -28 -171 -45 -123 -49 -181 -17 -239 24 -42 24 -45 7 -45 -10 0
-29 15 -42 33 -35 49 -31 138 11 242 31 75 33 87 31 185 -3 131 -4 129 17 100
11 -16 18 -51 21 -105z"/>
<path d="M788 2303 c-25 -6 -27 -24 -11 -84 18 -69 11 -131 -28 -229 -41 -102
-48 -183 -20 -237 37 -73 96 -100 121 -54 6 12 0 29 -22 61 -37 55 -34 96 13
215 27 67 32 94 33 165 1 91 -14 144 -45 160 -10 6 -19 9 -21 9 -2 -1 -10 -3
-20 -6z m44 -45 c8 -14 12 -59 12 -113 0 -77 -4 -101 -32 -170 -39 -97 -43
-172 -11 -224 11 -18 18 -36 15 -38 -11 -11 -37 7 -56 39 -31 52 -27 122 16
231 35 89 36 95 31 195 -5 102 1 122 25 80z"/>
<path d="M1075 2296 c-17 -12 -18 -18 -7 -53 23 -76 15 -155 -24 -256 -50
-130 -53 -169 -17 -237 31 -60 63 -83 97 -71 30 12 31 35 2 78 -35 50 -34 102
4 199 52 135 58 220 21 315 -14 38 -44 48 -76 25z m55 -52 c20 -60 8 -198 -24
-274 -41 -96 -44 -154 -12 -213 26 -48 26 -48 4 -45 -14 2 -30 19 -46 48 -30
57 -26 103 20 220 27 69 33 99 33 160 0 41 -4 90 -8 108 -12 47 18 43 33 -4z"/>
<path d="M1375 2296 c-17 -13 -18 -18 -5 -69 18 -75 9 -145 -32 -247 -45 -115
-46 -190 -3 -251 38 -53 66 -65 97 -39 20 16 21 21 10 37 -7 10 -22 37 -33 61
-19 39 -19 46 -6 95 8 28 26 84 41 122 42 115 31 276 -21 296 -30 11 -26 12
-48 -5z m46 -32 c7 -9 15 -51 17 -98 4 -73 1 -91 -28 -171 -43 -118 -49 -179
-20 -235 12 -23 19 -44 16 -47 -12 -12 -36 9 -57 48 -28 55 -22 116 21 224 31
76 32 85 28 188 -3 59 -1 107 3 107 3 0 12 -7 20 -16z"/>
<path d="M1678 2303 c-25 -6 -27 -24 -11 -84 19 -71 11 -130 -33 -243 -45
-115 -45 -192 -1 -250 36 -46 61 -60 86 -47 31 17 31 35 0 81 -38 57 -37 91 8
203 31 79 36 104 37 177 1 91 -14 144 -45 160 -10 6 -19 9 -21 9 -2 -1 -10 -3
-20 -6z m44 -45 c8 -14 12 -58 12 -113 0 -77 -5 -101 -32 -170 -39 -97 -43
-172 -11 -224 11 -18 18 -36 15 -38 -11 -11 -37 7 -57 39 -30 48 -21 149 20
243 25 58 31 83 31 147 0 42 -4 88 -9 101 -16 41 10 52 31 15z"/>
<path d="M104 1531 c-23 -10 -52 -34 -65 -52 l-24 -34 0 -585 0 -585 24 -34
c40 -56 87 -71 231 -71 l125 0 0 -82 c0 -56 4 -82 13 -85 9 -4 12 17 12 80 0
116 -1 117 -148 117 -93 0 -126 4 -159 19 -76 35 -73 9 -73 648 l0 568 26 29
c55 58 12 56 1026 56 908 0 933 -1 973 -20 79 -38 75 -8 75 -640 0 -631 3
-606 -73 -641 -33 -15 -66 -19 -155 -19 -62 0 -122 -5 -133 -10 -17 -9 -19
-22 -19 -101 0 -68 3 -90 12 -86 9 2 13 29 13 85 l0 82 126 0 c112 0 131 2
170 23 27 15 53 38 66 63 l23 39 -3 575 -2 575 -24 34 c-13 18 -42 42 -65 52
-39 18 -86 19 -986 19 -900 0 -947 -1 -986 -19z"/>
<path d="M121 1459 c-51 -48 -51 -52 -51 -599 1 -331 4 -520 11 -539 6 -17 24
-42 41 -56 l30 -25 940 0 940 0 32 33 33 32 6 184 c9 235 9 507 0 742 l-6 184
-33 33 -32 32 -944 0 -944 0 -23 -21z m1914 -15 c44 -17 45 -34 45 -588 l0
-524 -26 -31 -26 -31 -938 0 -938 0 -26 31 -26 31 0 524 c0 444 2 529 15 554
8 15 20 30 27 33 19 8 1873 8 1893 1z"/>
<path d="M322 1348 c-9 -9 -12 -131 -12 -489 0 -475 0 -478 21 -493 23 -16 47
-12 67 12 9 12 12 124 12 482 0 440 -1 468 -18 483 -22 20 -53 22 -70 5z m53
-489 c0 -434 -1 -464 -17 -467 -17 -3 -18 24 -18 461 0 255 3 467 7 471 25 25
28 -19 28 -465z"/>
<path d="M616 1344 c-14 -14 -16 -71 -16 -480 0 -302 4 -472 10 -485 12 -22
59 -26 78 -7 17 17 17 959 0 976 -17 17 -54 15 -72 -4z m52 -487 c2 -462 2
-467 -18 -467 -20 0 -20 6 -20 463 0 255 3 467 7 471 25 25 28 -20 31 -467z"/>
<path d="M910 1340 c-19 -19 -20 -33 -20 -485 0 -452 1 -466 20 -485 25 -25
45 -25 70 0 19 19 20 33 20 485 0 452 -1 466 -20 485 -11 11 -27 20 -35 20 -8
0 -24 -9 -35 -20z m48 -491 c-2 -301 -7 -464 -13 -464 -11 0 -20 907 -10 934
4 9 9 11 15 5 7 -7 9 -182 8 -475z"/>
<path d="M1206 1344 c-14 -14 -16 -72 -16 -488 0 -445 1 -474 18 -489 24 -22
45 -21 65 1 15 17 17 65 17 489 0 443 -1 471 -18 486 -23 21 -46 22 -66 1z
m54 -490 c0 -457 0 -464 -20 -464 -20 0 -20 7 -20 463 0 255 3 466 6 470 3 3
12 3 20 0 12 -4 14 -80 14 -469z"/>
<path d="M1497 1342 c-15 -17 -17 -65 -17 -489 0 -460 0 -470 20 -488 16 -15
26 -17 48 -9 l27 9 3 485 c2 447 1 486 -15 498 -24 17 -47 15 -66 -6z m53
-486 c0 -254 -3 -465 -6 -469 -3 -3 -12 -3 -20 0 -12 4 -14 80 -14 468 0 463
2 486 33 468 4 -2 7 -212 7 -467z"/>
<path d="M1798 1349 c-17 -9 -18 -44 -18 -494 0 -469 1 -485 19 -495 28 -14
38 -13 61 10 19 19 20 33 20 483 0 402 -2 465 -16 485 -16 24 -39 27 -66 11z
m45 -487 c-2 -251 -6 -463 -8 -470 -3 -7 -9 -10 -15 -7 -11 7 -15 927 -4 938
3 3 12 3 19 1 10 -4 12 -93 8 -462z"/>
<path d="M577 182 c-22 -24 -25 -186 -4 -180 8 3 13 32 15 86 l3 82 499 0 499
0 3 -82 c2 -54 7 -83 16 -86 9 -3 12 18 12 81 0 69 -3 87 -18 100 -17 15 -67
17 -514 17 -467 0 -496 -1 -511 -18z"/>
</g>
</svg>
