<?xml version="1.0" standalone="no"?>
<!DOCTYPE svg PUBLIC "-//W3C//DTD SVG 20010904//EN"
 "http://www.w3.org/TR/2001/REC-SVG-20010904/DTD/svg10.dtd">
<svg version="1.0" xmlns="http://www.w3.org/2000/svg"
 width="225.000000pt" height="225.000000pt" viewBox="0 0 225.000000 225.000000"
 preserveAspectRatio="xMidYMid meet">
<metadata>
Created by potrace 1.10, written by Peter Selinger 2001-2011
</metadata>
<g transform="translate(0.000000,225.000000) scale(0.100000,-0.100000)"
fill="#000000" stroke="none">
<path d="M166 1974 c-59 -21 -104 -60 -130 -112 -20 -41 -41 -122 -31 -122 2
0 19 33 38 73 21 43 48 81 67 95 72 53 43 52 1013 52 683 0 910 -3 941 -12 63
-19 130 -91 150 -160 20 -70 36 -84 29 -26 -7 61 -49 144 -86 172 -80 59 -33
56 -1035 55 -770 0 -923 -3 -956 -15z"/>
<path d="M182 1884 c-24 -14 -53 -44 -67 -69 l-26 -43 3 -244 3 -243 30 -42
c61 -84 -21 -78 970 -81 484 -1 897 0 918 4 46 7 101 52 128 106 19 36 20 56
17 277 l-3 238 -28 40 c-15 22 -45 49 -66 61 l-39 22 -899 0 -898 -1 -43 -25z
m1868 -22 c19 -9 45 -32 57 -51 22 -33 23 -41 23 -274 0 -232 -1 -242 -22
-273 -47 -68 20 -64 -985 -64 -873 0 -909 1 -937 19 -64 42 -66 52 -66 317 0
234 1 242 23 275 49 73 -11 69 982 69 827 0 892 -1 925 -18z"/>
<path d="M1267 1762 c-20 -22 -22 -63 -5 -80 8 -8 50 -12 125 -12 107 0 113 1
128 24 18 27 7 69 -20 80 -9 3 -61 6 -114 6 -82 0 -101 -3 -114 -18z m221 -39
c3 -23 2 -23 -102 -23 -96 0 -106 2 -106 18 0 10 3 22 7 26 4 4 50 5 103 4 90
-3 95 -4 98 -25z"/>
<path d="M1666 1764 c-19 -18 -21 -65 -4 -82 8 -8 50 -12 123 -12 120 0 135 6
135 51 0 50 -21 59 -135 59 -81 0 -107 -3 -119 -16z m222 -41 c3 -23 2 -23
-102 -23 -96 0 -106 2 -106 18 0 10 3 22 7 26 4 4 50 5 103 4 90 -3 95 -4 98
-25z"/>
<path d="M306 1590 c-34 -11 -82 -54 -102 -92 -47 -91 26 -209 138 -223 29 -3
399 -5 823 -3 861 3 808 -1 860 75 48 72 27 168 -47 220 l-41 28 -801 2 c-441
1 -814 -2 -830 -7z m1678 -70 c29 -32 36 -48 36 -81 0 -22 -7 -53 -15 -69 -32
-63 5 -60 -885 -60 -817 0 -832 1 -866 34 -43 43 -46 120 -7 166 14 18 36 36
47 40 12 5 388 9 837 9 l817 1 36 -40z"/>
<path d="M309 1481 c-35 -36 -37 -64 -4 -96 l24 -25 795 0 795 0 20 26 c26 33
27 65 2 95 l-19 24 -792 3 -791 2 -30 -29z m1621 -44 c0 -13 -5 -28 -12 -35
-9 -9 -200 -12 -799 -12 -851 0 -815 -2 -807 52 l3 23 790 5 c435 3 798 1 808
-3 9 -4 17 -18 17 -30z"/>
<path d="M11 1291 c14 -88 64 -152 149 -190 44 -20 61 -21 962 -21 904 0 917
0 965 21 85 36 138 103 152 189 10 62 -10 53 -29 -14 -17 -60 -64 -114 -124
-142 l-51 -24 -910 0 -910 0 -50 25 c-27 13 -57 30 -65 37 -22 18 -55 76 -70
120 -17 55 -28 54 -19 -1z"/>
<path d="M505 962 c-81 -50 -122 -126 -112 -204 3 -21 28 -87 56 -146 66 -140
67 -161 1 -223 -58 -54 -64 -86 -25 -117 32 -26 54 -20 110 30 102 90 110 169
30 331 -31 64 -48 112 -49 139 -1 36 4 45 47 82 52 45 59 74 27 106 -25 25
-46 25 -85 2z m71 -36 c3 -9 -13 -32 -40 -59 -42 -40 -46 -47 -46 -93 0 -38
11 -72 50 -154 62 -130 67 -184 21 -247 -52 -72 -113 -105 -127 -68 -4 10 11
34 40 65 43 46 46 52 46 105 0 46 -8 71 -47 148 -42 82 -47 99 -47 161 l-1 68
48 44 c50 45 93 57 103 30z"/>
<path d="M1145 961 c-52 -32 -81 -66 -100 -114 -24 -64 -17 -106 41 -229 66
-140 66 -173 2 -233 -55 -51 -62 -83 -23 -113 34 -27 56 -19 120 42 93 89 97
160 15 328 -27 58 -50 117 -50 133 0 22 12 40 50 75 55 51 62 78 30 110 -25
25 -46 25 -85 1z m71 -35 c3 -9 -13 -32 -40 -59 -43 -40 -46 -47 -46 -94 0
-38 10 -70 44 -139 52 -107 60 -141 51 -201 -12 -82 -141 -185 -153 -122 -1 8
18 36 43 61 42 42 45 49 45 98 0 42 -9 73 -45 148 -72 151 -73 209 -4 280 43
44 94 57 105 28z"/>
<path d="M1764 948 c-29 -20 -57 -50 -72 -78 -36 -68 -28 -131 32 -250 26 -52
50 -114 53 -138 6 -42 4 -45 -46 -92 -59 -55 -66 -87 -25 -119 31 -24 47 -19
108 31 100 84 109 172 33 324 -24 49 -48 104 -52 122 -10 46 9 85 56 116 45
30 51 60 19 94 -28 30 -49 28 -106 -10z m93 -24 c2 -7 -16 -33 -41 -57 -43
-40 -46 -47 -46 -94 0 -38 10 -70 45 -142 41 -84 45 -99 45 -167 l0 -75 -50
-50 c-36 -36 -57 -49 -73 -47 -36 5 -30 32 18 80 43 43 45 48 45 101 0 46 -8
71 -47 148 -77 155 -71 230 25 300 36 27 69 28 79 3z"/>
</g>
</svg>
