<?xml version="1.0" standalone="no"?>
<!DOCTYPE svg PUBLIC "-//W3C//DTD SVG 20010904//EN"
 "http://www.w3.org/TR/2001/REC-SVG-20010904/DTD/svg10.dtd">
<svg version="1.0" xmlns="http://www.w3.org/2000/svg"
 width="225.000000pt" height="225.000000pt" viewBox="0 0 225.000000 225.000000"
 preserveAspectRatio="xMidYMid meet">
<metadata>
Created by potrace 1.10, written by Peter Selinger 2001-2011
</metadata>
<g transform="translate(0.000000,225.000000) scale(0.100000,-0.100000)"
fill="#000000" stroke="none">
<path d="M1179 2203 c-13 -16 -12 -17 4 -4 9 7 17 15 17 17 0 8 -8 3 -21 -13z"/>
<path d="M1079 2193 c-13 -16 -12 -17 4 -4 9 7 17 15 17 17 0 8 -8 3 -21 -13z"/>
<path d="M1695 2178 c-93 -20 -165 -111 -165 -209 0 -20 -6 -28 -25 -33 -32
-8 -92 -61 -111 -97 -17 -34 -18 -91 -2 -107 8 -8 65 -12 189 -12 201 0 205 2
196 71 -7 53 -50 108 -109 137 l-45 23 7 42 c11 57 56 97 110 97 32 0 48 -7
78 -34 l37 -34 3 -371 3 -371 -858 0 c-851 0 -858 0 -892 -21 -45 -28 -67 -56
-81 -105 -24 -84 24 -170 111 -201 l49 -18 0 -66 c0 -215 130 -434 312 -524
67 -33 89 -38 167 -43 l91 -5 0 -103 c0 -93 2 -104 21 -118 22 -15 48 -11 61
8 4 6 8 57 8 114 l0 102 275 0 275 0 0 -102 c0 -57 4 -108 8 -114 13 -19 39
-23 61 -8 19 14 21 25 21 118 l0 103 91 5 c78 5 100 10 167 43 182 90 312 309
312 524 l0 66 49 18 c87 31 135 117 111 201 -25 88 -82 126 -192 126 l-77 0
-3 383 -3 383 -27 42 c-48 72 -138 109 -223 90z m135 -43 c33 -17 74 -67 85
-105 4 -14 8 -186 8 -382 -1 -417 -8 -390 107 -395 117 -4 165 -45 163 -141
-1 -76 -22 -103 -118 -144 -28 -12 -30 -18 -37 -82 -11 -114 -16 -140 -38
-205 -75 -215 -238 -347 -440 -354 -38 -1 -74 -7 -79 -12 -5 -6 -12 -55 -14
-110 -4 -81 -8 -101 -21 -103 -17 -4 -18 3 -18 121 0 108 12 104 -303 104
-231 0 -266 -2 -279 -16 -9 -10 -16 -49 -20 -110 -3 -52 -8 -96 -11 -99 -2 -2
-10 -2 -17 0 -9 4 -12 27 -11 79 2 84 -10 136 -35 143 -9 2 -33 4 -52 4 -120
-4 -218 39 -315 136 -112 113 -166 248 -167 413 0 65 -12 83 -69 102 -46 16
-63 30 -83 70 -32 61 -9 147 51 186 23 16 100 17 884 19 836 1 859 2 872 20
12 16 14 82 15 355 0 185 -4 352 -9 372 -29 114 -150 153 -233 75 -26 -25 -36
-44 -42 -81 -6 -45 -5 -50 20 -72 15 -13 33 -23 40 -23 14 0 59 -45 75 -77 6
-12 11 -33 11 -47 0 -30 15 -28 -194 -28 -157 -1 -163 2 -141 66 14 40 69 95
96 96 25 0 36 19 48 82 16 74 46 118 100 144 50 23 124 23 171 -1z"/>
<path d="M1555 1881 c-68 -17 -103 -60 -68 -86 12 -10 46 -14 100 -15 73 0 84
2 93 21 9 17 8 25 -7 41 -15 17 -76 50 -85 47 -2 -1 -16 -4 -33 -8z m69 -35
c64 -27 53 -36 -44 -36 -96 0 -108 9 -46 36 40 17 49 17 90 0z"/>
<path d="M144 1199 c-72 -47 -69 -139 7 -180 13 -6 330 -10 967 -10 521 0 952
1 959 1 6 0 25 12 42 26 39 33 49 82 26 122 -38 63 22 60 -1021 60 -905 0
-953 -1 -980 -19z m1960 -30 c42 -33 35 -99 -14 -124 -43 -22 -1887 -22 -1929
0 -50 25 -57 91 -15 124 27 21 31 21 979 21 948 0 952 0 979 -21z"/>
<path d="M519 1103 c-13 -16 -12 -17 4 -4 9 7 17 15 17 17 0 8 -8 3 -21 -13z"/>
<path d="M295 962 c-40 -9 -45 -21 -41 -100 5 -92 31 -177 80 -265 47 -84 111
-146 199 -194 l72 -38 480 -2 c334 -1 498 2 540 10 202 39 365 259 365 493 0
69 -3 85 -17 92 -18 9 -1639 13 -1678 4z m1675 -75 c0 -73 -33 -195 -71 -268
-44 -82 -119 -155 -198 -193 l-66 -31 -510 0 -510 0 -66 31 c-79 38 -154 111
-198 193 -38 73 -71 195 -71 268 l0 53 845 0 845 0 0 -53z"/>
<path d="M119 2023 c-13 -16 -12 -17 4 -4 9 7 17 15 17 17 0 8 -8 3 -21 -13z"/>
<path d="M559 2023 c-13 -16 -12 -17 4 -4 9 7 17 15 17 17 0 8 -8 3 -21 -13z"/>
<path d="M499 1963 l-24 -28 28 24 c25 23 32 31 24 31 -2 0 -14 -12 -28 -27z"/>
<path d="M1319 1903 c-13 -16 -12 -17 4 -4 9 7 17 15 17 17 0 8 -8 3 -21 -13z"/>
<path d="M679 1793 c-13 -16 -12 -17 4 -4 9 7 17 15 17 17 0 8 -8 3 -21 -13z"/>
<path d="M229 1693 c-13 -16 -12 -17 4 -4 9 7 17 15 17 17 0 8 -8 3 -21 -13z"/>
<path d="M1462 1674 c-20 -13 -22 -24 -22 -95 0 -91 10 -119 45 -119 43 0 55
24 55 111 0 66 -3 82 -20 99 -24 24 -29 24 -58 4z m43 -100 c0 -68 -2 -79 -18
-82 -16 -3 -18 4 -16 75 2 84 5 96 22 90 8 -2 12 -32 12 -83z"/>
<path d="M1612 1674 c-20 -13 -22 -24 -22 -95 0 -91 10 -119 45 -119 43 0 55
24 55 111 0 66 -3 82 -20 99 -24 24 -29 24 -58 4z m46 -103 c-3 -63 -6 -76
-20 -79 -16 -3 -18 6 -18 76 0 83 3 94 26 85 12 -4 14 -23 12 -82z"/>
<path d="M609 1633 c-13 -16 -12 -17 4 -4 9 7 17 15 17 17 0 8 -8 3 -21 -13z"/>
<path d="M99 1563 l-24 -28 28 24 c25 23 32 31 24 31 -2 0 -14 -12 -28 -27z"/>
<path d="M449 1563 c-13 -16 -12 -17 4 -4 9 7 17 15 17 17 0 8 -8 3 -21 -13z"/>
<path d="M2189 753 c-13 -16 -12 -17 4 -4 16 13 21 21 13 21 -2 0 -10 -8 -17
-17z"/>
<path d="M2109 673 c-13 -16 -12 -17 4 -4 16 13 21 21 13 21 -2 0 -10 -8 -17
-17z"/>
<path d="M2174 298 l-29 -33 33 29 c30 28 37 36 29 36 -2 0 -16 -15 -33 -32z"/>
<path d="M1669 233 c-13 -16 -12 -17 4 -4 16 13 21 21 13 21 -2 0 -10 -8 -17
-17z"/>
<path d="M1589 153 l-34 -38 38 34 c20 19 37 36 37 38 0 8 -8 0 -41 -34z"/>
<path d="M369 163 c-13 -16 -12 -17 4 -4 16 13 21 21 13 21 -2 0 -10 -8 -17
-17z"/>
<path d="M329 123 c-13 -16 -12 -17 4 -4 9 7 17 15 17 17 0 8 -8 3 -21 -13z"/>
<path d="M1949 73 l-24 -28 28 24 c15 14 27 26 27 28 0 8 -8 1 -31 -24z"/>
</g>
</svg>
