<?xml version="1.0" standalone="yes"?>
<svg xmlns="http://www.w3.org/2000/svg" width="225" height="225">
<path style="fill:#ffffff; stroke:none;" d="M0 0L0 77L1 77C7.61758 64.252 24.8205 54.1142 37 47.1505C81.5264 21.692 140.037 20.0187 185 45.5795C198.171 53.0669 216.805 63.1389 224 77L225 77L225 0L0 0z"/>
<path style="fill:#a2a2a2; stroke:none;" d="M103 27L103 28L122 28L103 27M93.6667 28.3333L94.3333 28.6667L93.6667 28.3333z"/>
<path style="fill:#626262; stroke:none;" d="M95.6667 28.3333L96.3333 28.6667L95.6667 28.3333z"/>
<path style="fill:#313131; stroke:none;" d="M97 28L98 29L97 28z"/>
<path style="fill:#010101; stroke:none;" d="M98 28.4244C68.1771 32.3881 40.9243 41.9188 17 60.662C9.43979 66.585 -11.9307 88.1652 10 92.4267C16.2092 93.6333 20.7229 88.9749 25 85.2824C32.7727 78.5723 40.977 72.2671 50 67.3117C74.1093 54.0711 101.778 48.811 129 52.2855C150.091 54.9775 169.571 62.9846 187 75.0255C194.49 80.2 204.981 94.3735 215 92.4267C222.98 90.8761 226.624 81.9824 222.86 75C218.068 66.1131 206.222 58.8382 198 53.3549C169.636 34.438 132.168 23.8831 98 28.4244z"/>
<path style="fill:#313131; stroke:none;" d="M127 28L128 29L127 28z"/>
<path style="fill:#626262; stroke:none;" d="M128.667 28.3333L129.333 28.6667L128.667 28.3333z"/>
<path style="fill:#a2a2a2; stroke:none;" d="M130 28L130 29L133 29L130 28M86.6667 29.3333L87.3333 29.6667L86.6667 29.3333z"/>
<path style="fill:#626262; stroke:none;" d="M88 29L89 30L88 29z"/>
<path style="fill:#313131; stroke:none;" d="M89 29L90 30L89 29M135 29L136 30L135 29z"/>
<path style="fill:#626262; stroke:none;" d="M136 29L137 30L136 29z"/>
<path style="fill:#a2a2a2; stroke:none;" d="M137.667 29.3333L138.333 29.6667L137.667 29.3333M81 30L82 31L81 30z"/>
<path style="fill:#626262; stroke:none;" d="M82 30L83 31L82 30z"/>
<path style="fill:#313131; stroke:none;" d="M83 30L84 31L83 30M141 30L142 31L141 30z"/>
<path style="fill:#626262; stroke:none;" d="M142 30L143 31L142 30z"/>
<path style="fill:#a2a2a2; stroke:none;" d="M143 30L144 31L143 30M76.6667 31.3333L77.3333 31.6667L76.6667 31.3333z"/>
<path style="fill:#313131; stroke:none;" d="M78 31L79 32L78 31M146 31L147 32L146 31z"/>
<path style="fill:#626262; stroke:none;" d="M147 31L148 32L147 31z"/>
<path style="fill:#a2a2a2; stroke:none;" d="M148 31L149 32L148 31M72.6667 32.3333L73.3333 32.6667L72.6667 32.3333z"/>
<path style="fill:#313131; stroke:none;" d="M74 32L75 33L74 32z"/>
<path style="fill:#626262; stroke:none;" d="M151 32L152 33L151 32z"/>
<path style="fill:#a2a2a2; stroke:none;" d="M152 32L153 33L152 32M69 33L70 34L69 33z"/>
<path style="fill:#313131; stroke:none;" d="M70 33L71 34L70 33M154 33L155 34L154 33z"/>
<path style="fill:#a2a2a2; stroke:none;" d="M155 33L156 34L155 33M65 34L66 35L65 34z"/>
<path style="fill:#626262; stroke:none;" d="M66 34L67 35L66 34M158 34L159 35L158 34z"/>
<path style="fill:#a2a2a2; stroke:none;" d="M159 34L160 35L159 34M62 35L63 36L62 35z"/>
<path style="fill:#626262; stroke:none;" d="M63 35L64 36L63 35M161 35L162 36L161 35z"/>
<path style="fill:#a2a2a2; stroke:none;" d="M162 35L163 36L162 35M60 36L61 37L60 36z"/>
<path style="fill:#626262; stroke:none;" d="M164 36L165 37L164 36z"/>
<path style="fill:#a2a2a2; stroke:none;" d="M57 37L58 38L57 37z"/>
<path style="fill:#313131; stroke:none;" d="M58 37L59 38L58 37z"/>
<path style="fill:#a2a2a2; stroke:none;" d="M167 37L168 38L167 37M54 38L55 39L54 38z"/>
<path style="fill:#626262; stroke:none;" d="M55 38L56 39L55 38M169 38L170 39L169 38z"/>
<path style="fill:#a2a2a2; stroke:none;" d="M170 38L171 39L170 38M52 39L53 40L52 39M172 39L173 40L172 39z"/>
<path style="fill:#626262; stroke:none;" d="M50 40L51 41L50 40M174 40L175 41L174 40z"/>
<path style="fill:#a2a2a2; stroke:none;" d="M47 41L48 42L47 41z"/>
<path style="fill:#626262; stroke:none;" d="M48 41L49 42L48 41M176 41L177 42L176 41z"/>
<path style="fill:#a2a2a2; stroke:none;" d="M45 42L46 43L45 42z"/>
<path style="fill:#313131; stroke:none;" d="M46 42L47 43L46 42M178 42L179 43L178 42z"/>
<path style="fill:#a2a2a2; stroke:none;" d="M179 42L180 43L179 42M43 43L44 44L43 43z"/>
<path style="fill:#313131; stroke:none;" d="M44 43L45 44L44 43M180 43L181 44L180 43z"/>
<path style="fill:#a2a2a2; stroke:none;" d="M181 43L182 44L181 43M41 44L42 45L41 44z"/>
<path style="fill:#313131; stroke:none;" d="M42 44L43 45L42 44M182 44L183 45L182 44z"/>
<path style="fill:#a2a2a2; stroke:none;" d="M183 44L184 45L183 44M39 45L40 46L39 45z"/>
<path style="fill:#313131; stroke:none;" d="M40 45L41 46L40 45M184 45L185 46L184 45z"/>
<path style="fill:#626262; stroke:none;" d="M38 46L39 47L38 46M186 46L187 47L186 46M36 47L37 48L36 47M188 47L189 48L188 47z"/>
<path style="fill:#a2a2a2; stroke:none;" d="M34 48L35 49L34 48M190 48L191 49L190 48M32 49L33 50L32 49z"/>
<path style="fill:#313131; stroke:none;" d="M33 49L34 50L33 49M191 49L192 50L191 49z"/>
<path style="fill:#626262; stroke:none;" d="M31 50L32 51L31 50M193 50L194 51L193 50z"/>
<path style="fill:#a2a2a2; stroke:none;" d="M29 51L30 52L29 51z"/>
<path style="fill:#313131; stroke:none;" d="M103 51L104 52L103 51z"/>
<path style="fill:#626262; stroke:none;" d="M104 51L104 52L108 52L104 51z"/>
<path style="fill:#a2a2a2; stroke:none;" d="M108 51L108 52L116 52L108 51z"/>
<path style="fill:#626262; stroke:none;" d="M116 51L116 52L121 52L116 51z"/>
<path style="fill:#313131; stroke:none;" d="M121 51L122 52L121 51z"/>
<path style="fill:#a2a2a2; stroke:none;" d="M195 51L196 52L195 51z"/>
<path style="fill:#626262; stroke:none;" d="M28 52L29 53L28 52z"/>
<path style="fill:#313131; stroke:none;" d="M93.6667 52.3333L94.3333 52.6667L93.6667 52.3333z"/>
<path style="fill:#626262; stroke:none;" d="M95 52L96 53L95 52z"/>
<path style="fill:#a2a2a2; stroke:none;" d="M96.6667 52.3333L97.3333 52.6667L96.6667 52.3333z"/>
<path style="fill:#ffffff; stroke:none;" d="M1 85L0 85L0 225L225 225L225 85C221.433 88.9038 217.926 93.3356 212 92.7431C204.409 91.984 197.75 83.0818 192 78.6512C181.002 70.1768 169.033 63.7898 156 59.054C115.752 44.4294 69.3565 52.0697 35 77.0108C25.3192 84.0386 10.4894 102.862 1 85z"/>
<path style="fill:#a2a2a2; stroke:none;" d="M127.667 52.3333L128.333 52.6667L127.667 52.3333z"/>
<path style="fill:#626262; stroke:none;" d="M129 52L130 53L129 52z"/>
<path style="fill:#313131; stroke:none;" d="M130 52L131 53L130 52z"/>
<path style="fill:#626262; stroke:none;" d="M196 52L197 53L196 52z"/>
<path style="fill:#a2a2a2; stroke:none;" d="M26 53L27 54L26 53z"/>
<path style="fill:#626262; stroke:none;" d="M88 53L89 54L88 53z"/>
<path style="fill:#a2a2a2; stroke:none;" d="M89.6667 53.3333L90.3333 53.6667L89.6667 53.3333M133.667 53.3333L134.333 53.6667L133.667 53.3333z"/>
<path style="fill:#626262; stroke:none;" d="M135.667 53.3333L136.333 53.6667L135.667 53.3333z"/>
<path style="fill:#a2a2a2; stroke:none;" d="M198 53L199 54L198 53z"/>
<path style="fill:#626262; stroke:none;" d="M25 54L26 55L25 54z"/>
<path style="fill:#313131; stroke:none;" d="M83 54L84 55L83 54z"/>
<path style="fill:#a2a2a2; stroke:none;" d="M84.6667 54.3333L85.3333 54.6667L84.6667 54.3333M139.667 54.3333L140.333 54.6667L139.667 54.3333z"/>
<path style="fill:#313131; stroke:none;" d="M141 54L142 55L141 54z"/>
<path style="fill:#626262; stroke:none;" d="M199 54L200 55L199 54z"/>
<path style="fill:#a2a2a2; stroke:none;" d="M23 55L24 56L23 55z"/>
<path style="fill:#313131; stroke:none;" d="M79 55L80 56L79 55z"/>
<path style="fill:#a2a2a2; stroke:none;" d="M80 55L81 56L80 55M143.667 55.3333L144.333 55.6667L143.667 55.3333z"/>
<path style="fill:#313131; stroke:none;" d="M145 55L146 56L145 55z"/>
<path style="fill:#a2a2a2; stroke:none;" d="M201 55L202 56L201 55M22 56L23 57L22 56z"/>
<path style="fill:#313131; stroke:none;" d="M75 56L76 57L75 56z"/>
<path style="fill:#a2a2a2; stroke:none;" d="M76.6667 56.3333L77.3333 56.6667L76.6667 56.3333M147.667 56.3333L148.333 56.6667L147.667 56.3333z"/>
<path style="fill:#313131; stroke:none;" d="M149 56L150 57L149 56z"/>
<path style="fill:#626262; stroke:none;" d="M202 56L203 57L202 56z"/>
<path style="fill:#313131; stroke:none;" d="M21 57L22 58L21 57M72 57L73 58L72 57z"/>
<path style="fill:#a2a2a2; stroke:none;" d="M73 57L74 58L73 57M151 57L152 58L151 57z"/>
<path style="fill:#313131; stroke:none;" d="M152 57L153 58L152 57M203 57L204 58L203 57z"/>
<path style="fill:#a2a2a2; stroke:none;" d="M19 58L20 59L19 58z"/>
<path style="fill:#313131; stroke:none;" d="M69 58L70 59L69 58z"/>
<path style="fill:#a2a2a2; stroke:none;" d="M70 58L71 59L70 58M154 58L155 59L154 58z"/>
<path style="fill:#313131; stroke:none;" d="M155 58L156 59L155 58z"/>
<path style="fill:#a2a2a2; stroke:none;" d="M205 58L206 59L205 58z"/>
<path style="fill:#626262; stroke:none;" d="M18 59L19 60L18 59z"/>
<path style="fill:#313131; stroke:none;" d="M66 59L67 60L66 59z"/>
<path style="fill:#a2a2a2; stroke:none;" d="M67 59L68 60L67 59M157 59L158 60L157 59z"/>
<path style="fill:#626262; stroke:none;" d="M206 59L207 60L206 59z"/>
<path style="fill:#313131; stroke:none;" d="M17 60L18 61L17 60z"/>
<path style="fill:#626262; stroke:none;" d="M64 60L65 61L64 60z"/>
<path style="fill:#a2a2a2; stroke:none;" d="M159 60L160 61L159 60z"/>
<path style="fill:#626262; stroke:none;" d="M160 60L161 61L160 60z"/>
<path style="fill:#313131; stroke:none;" d="M207 60L208 61L207 60M61 61L62 62L61 61z"/>
<path style="fill:#a2a2a2; stroke:none;" d="M62 61L63 62L62 61M162 61L163 62L162 61z"/>
<path style="fill:#313131; stroke:none;" d="M163 61L164 62L163 61z"/>
<path style="fill:#a2a2a2; stroke:none;" d="M14 62L15 63L14 62z"/>
<path style="fill:#626262; stroke:none;" d="M59 62L60 63L59 62z"/>
<path style="fill:#a2a2a2; stroke:none;" d="M60 62L61 63L60 62M164 62L165 63L164 62z"/>
<path style="fill:#313131; stroke:none;" d="M165 62L166 63L165 62z"/>
<path style="fill:#a2a2a2; stroke:none;" d="M210 62L211 63L210 62M13 63L14 64L13 63z"/>
<path style="fill:#626262; stroke:none;" d="M57 63L58 64L57 63M167 63L168 64L167 63z"/>
<path style="fill:#a2a2a2; stroke:none;" d="M211 63L212 64L211 63z"/>
<path style="fill:#626262; stroke:none;" d="M12 64L13 65L12 64M55 64L56 65L55 64M169 64L170 65L169 64M212 64L213 65L212 64z"/>
<path style="fill:#313131; stroke:none;" d="M11 65L12 66L11 65z"/>
<path style="fill:#626262; stroke:none;" d="M53 65L54 66L53 65M171 65L172 66L171 65z"/>
<path style="fill:#313131; stroke:none;" d="M213 65L214 66L213 65z"/>
<path style="fill:#626262; stroke:none;" d="M51 66L52 67L51 66M173 66L174 67L173 66M49 67L50 68L49 67z"/>
<path style="fill:#313131; stroke:none;" d="M175 67L176 68L175 67z"/>
<path style="fill:#a2a2a2; stroke:none;" d="M7 68L8 69L7 68z"/>
<path style="fill:#313131; stroke:none;" d="M47 68L48 69L47 68z"/>
<path style="fill:#a2a2a2; stroke:none;" d="M176 68L177 69L176 68z"/>
<path style="fill:#313131; stroke:none;" d="M177 68L178 69L177 68z"/>
<path style="fill:#a2a2a2; stroke:none;" d="M217 68L218 69L217 68M6 69L7 70L6 69M46 69L47 70L46 69M178 69L179 70L178 69M218 69L219 70L218 69M5 70L6 71L5 70z"/>
<path style="fill:#626262; stroke:none;" d="M44 70L45 71L44 70M180 70L181 71L180 70z"/>
<path style="fill:#a2a2a2; stroke:none;" d="M219 70L220 71L219 70M4 71L5 72L4 71M181 71L182 72L181 71M220 71L221 72L220 71M3 72L4 73L3 72M41 72L42 73L41 72z"/>
<path style="fill:#626262; stroke:none;" d="M183 72L184 73L183 72z"/>
<path style="fill:#a2a2a2; stroke:none;" d="M221 72L222 73L221 72M2 73L3 74L2 73z"/>
<path style="fill:#313131; stroke:none;" d="M39 73L40 74L39 73z"/>
<path style="fill:#a2a2a2; stroke:none;" d="M222 73L223 74L222 73M38 74L39 75L38 74M102 74L102 75L107 75L102 74z"/>
<path style="fill:#626262; stroke:none;" d="M107 74L107 75L118 75L107 74z"/>
<path style="fill:#a2a2a2; stroke:none;" d="M118 74L118 75L122 75L118 74z"/>
<path style="fill:#626262; stroke:none;" d="M186 74L187 75L186 74M1 75L2 76L1 75z"/>
<path style="fill:#a2a2a2; stroke:none;" d="M37 75L38 76L37 75M95.6667 75.3333L96.3333 75.6667L95.6667 75.3333z"/>
<path style="fill:#626262; stroke:none;" d="M97 75L98 76L97 75z"/>
<path style="fill:#313131; stroke:none;" d="M98 75L99 76L98 75z"/>
<path style="fill:#010101; stroke:none;" d="M99 75.4282C77.7282 78.4743 58.5725 86.8991 42.0008 100.615C33.8974 107.322 28.3907 123.71 44 125.627C53.3429 126.775 63.466 113.719 71 109.208C85.4822 100.536 104.181 96.1358 121 98.4252C134.478 100.26 147.76 104.553 159 112.44C165.43 116.951 173.204 127.331 182 125.451C204.518 120.641 181.046 98.5179 173 93.0285C151.979 78.6872 124.34 71.7996 99 75.4282z"/>
<path style="fill:#313131; stroke:none;" d="M126 75L127 76L126 75z"/>
<path style="fill:#626262; stroke:none;" d="M127 75L128 76L127 75z"/>
<path style="fill:#a2a2a2; stroke:none;" d="M128.667 75.3333L129.333 75.6667L128.667 75.3333M187 75L188 76L187 75z"/>
<path style="fill:#626262; stroke:none;" d="M223 75L224 76L223 75M35 76L36 77L35 76z"/>
<path style="fill:#a2a2a2; stroke:none;" d="M90 76L91 77L90 76z"/>
<path style="fill:#626262; stroke:none;" d="M91 76L92 77L91 76z"/>
<path style="fill:#313131; stroke:none;" d="M92 76L93 77L92 76M132 76L133 77L132 76z"/>
<path style="fill:#626262; stroke:none;" d="M133 76L134 77L133 76z"/>
<path style="fill:#a2a2a2; stroke:none;" d="M134 76L135 77L134 76z"/>
<path style="fill:#626262; stroke:none;" d="M189 76L190 77L189 76z"/>
<path style="fill:#a2a2a2; stroke:none;" d="M0 77L1 78L0 77M34 77L35 78L34 77M85.6667 77.3333L86.3333 77.6667L85.6667 77.3333z"/>
<path style="fill:#313131; stroke:none;" d="M87 77L88 78L87 77M137 77L138 78L137 77z"/>
<path style="fill:#a2a2a2; stroke:none;" d="M138.667 77.3333L139.333 77.6667L138.667 77.3333M190 77L191 78L190 77M224 77L225 78L224 77z"/>
<path style="fill:#626262; stroke:none;" d="M0 78L1 79L0 78z"/>
<path style="fill:#a2a2a2; stroke:none;" d="M82 78L83 79L82 78z"/>
<path style="fill:#626262; stroke:none;" d="M83 78L84 79L83 78M141 78L142 79L141 78z"/>
<path style="fill:#a2a2a2; stroke:none;" d="M142 78L143 79L142 78M191 78L192 79L191 78z"/>
<path style="fill:#626262; stroke:none;" d="M224 78L225 79L224 78z"/>
<path style="fill:#313131; stroke:none;" d="M0 79L1 80L0 79z"/>
<path style="fill:#626262; stroke:none;" d="M31 79L32 80L31 79z"/>
<path style="fill:#a2a2a2; stroke:none;" d="M79 79L80 80L79 79z"/>
<path style="fill:#313131; stroke:none;" d="M144 79L145 80L144 79z"/>
<path style="fill:#a2a2a2; stroke:none;" d="M145 79L146 80L145 79z"/>
<path style="fill:#313131; stroke:none;" d="M193 79L194 80L193 79M224 79L225 80L224 79z"/>
<path style="fill:#a2a2a2; stroke:none;" d="M30 80L31 81L30 80M76 80L77 81L76 80z"/>
<path style="fill:#313131; stroke:none;" d="M77 80L78 81L77 80M147 80L148 81L147 80z"/>
<path style="fill:#a2a2a2; stroke:none;" d="M148 80L149 81L148 80z"/>
<path style="fill:#626262; stroke:none;" d="M194 80L195 81L194 80z"/>
<path style="fill:#a2a2a2; stroke:none;" d="M29 81L30 82L29 81M73 81L74 82L73 81z"/>
<path style="fill:#313131; stroke:none;" d="M74 81L75 82L74 81M150 81L151 82L150 81z"/>
<path style="fill:#a2a2a2; stroke:none;" d="M151 81L152 82L151 81M195 81L196 82L195 81z"/>
<path style="fill:#313131; stroke:none;" d="M0 82L1 83L0 82z"/>
<path style="fill:#626262; stroke:none;" d="M71 82L72 83L71 82M153 82L154 83L153 82z"/>
<path style="fill:#a2a2a2; stroke:none;" d="M196 82L197 83L196 82z"/>
<path style="fill:#313131; stroke:none;" d="M224 82L225 83L224 82z"/>
<path style="fill:#626262; stroke:none;" d="M0 83L1 84L0 83z"/>
<path style="fill:#a2a2a2; stroke:none;" d="M68 83L69 84L68 83z"/>
<path style="fill:#313131; stroke:none;" d="M69 83L70 84L69 83M155 83L156 84L155 83z"/>
<path style="fill:#a2a2a2; stroke:none;" d="M156 83L157 84L156 83z"/>
<path style="fill:#626262; stroke:none;" d="M224 83L225 84L224 83z"/>
<path style="fill:#a2a2a2; stroke:none;" d="M0 84L1 85L0 84z"/>
<path style="fill:#313131; stroke:none;" d="M25 84L26 85L25 84z"/>
<path style="fill:#a2a2a2; stroke:none;" d="M66 84L67 85L66 84z"/>
<path style="fill:#313131; stroke:none;" d="M67 84L68 85L67 84z"/>
<path style="fill:#a2a2a2; stroke:none;" d="M158 84L159 85L158 84z"/>
<path style="fill:#313131; stroke:none;" d="M199 84L200 85L199 84z"/>
<path style="fill:#a2a2a2; stroke:none;" d="M224 84L225 85L224 84z"/>
<path style="fill:#626262; stroke:none;" d="M24 85L25 86L24 85z"/>
<path style="fill:#a2a2a2; stroke:none;" d="M64 85L65 86L64 85M160 85L161 86L160 85z"/>
<path style="fill:#313131; stroke:none;" d="M200 85L201 86L200 85z"/>
<path style="fill:#626262; stroke:none;" d="M1 86L2 87L1 86M23 86L24 87L23 86z"/>
<path style="fill:#a2a2a2; stroke:none;" d="M62 86L63 87L62 86M162 86L163 87L162 86z"/>
<path style="fill:#626262; stroke:none;" d="M201 86L202 87L201 86M223 86L224 87L223 86M22 87L23 88L22 87z"/>
<path style="fill:#a2a2a2; stroke:none;" d="M60 87L61 88L60 87z"/>
<path style="fill:#313131; stroke:none;" d="M61 87L62 88L61 87M163 87L164 88L163 87z"/>
<path style="fill:#a2a2a2; stroke:none;" d="M164 87L165 88L164 87z"/>
<path style="fill:#626262; stroke:none;" d="M202 87L203 88L202 87z"/>
<path style="fill:#a2a2a2; stroke:none;" d="M2 88L3 89L2 88z"/>
<path style="fill:#626262; stroke:none;" d="M21 88L22 89L21 88z"/>
<path style="fill:#313131; stroke:none;" d="M59 88L60 89L59 88M165 88L166 89L165 88z"/>
<path style="fill:#626262; stroke:none;" d="M203 88L204 89L203 88z"/>
<path style="fill:#a2a2a2; stroke:none;" d="M222 88L223 89L222 88M3 89L4 90L3 89M20 89L21 90L20 89z"/>
<path style="fill:#626262; stroke:none;" d="M57 89L58 90L57 89M167 89L168 90L167 89M204 89L205 90L204 89z"/>
<path style="fill:#a2a2a2; stroke:none;" d="M221 89L222 90L221 89M4 90L5 91L4 90M19 90L20 91L19 90M55 90L56 91L55 90M169 90L170 91L169 90M205 90L206 91L205 90M220 90L221 91L220 90z"/>
<path style="fill:#626262; stroke:none;" d="M6 91L7 92L6 91M17 91L18 92L17 91z"/>
<path style="fill:#313131; stroke:none;" d="M54 91L55 92L54 91z"/>
<path style="fill:#626262; stroke:none;" d="M170 91L171 92L170 91z"/>
<path style="fill:#313131; stroke:none;" d="M207 91L208 92L207 91z"/>
<path style="fill:#626262; stroke:none;" d="M218 91L219 92L218 91z"/>
<path style="fill:#a2a2a2; stroke:none;" d="M8 92L9 93L8 92z"/>
<path style="fill:#313131; stroke:none;" d="M9 92L10 93L9 92M14 92L15 93L14 92z"/>
<path style="fill:#a2a2a2; stroke:none;" d="M15 92L16 93L15 92M52 92L53 93L52 92M172 92L173 93L172 92M209 92L210 93L209 92z"/>
<path style="fill:#313131; stroke:none;" d="M210 92L211 93L210 92M215 92L216 93L215 92z"/>
<path style="fill:#a2a2a2; stroke:none;" d="M216 92L217 93L216 92z"/>
<path style="fill:#313131; stroke:none;" d="M51 93L52 94L51 93z"/>
<path style="fill:#626262; stroke:none;" d="M173 93L174 94L173 93z"/>
<path style="fill:#a2a2a2; stroke:none;" d="M49 94L50 95L49 94M175 94L176 95L175 94z"/>
<path style="fill:#626262; stroke:none;" d="M48 95L49 96L48 95z"/>
<path style="fill:#a2a2a2; stroke:none;" d="M176 95L177 96L176 95z"/>
<path style="fill:#313131; stroke:none;" d="M47 96L48 97L47 96M177 96L178 97L177 96z"/>
<path style="fill:#a2a2a2; stroke:none;" d="M45 97L46 98L45 97M44 98L45 99L44 98z"/>
<path style="fill:#626262; stroke:none;" d="M103.667 98.3333L104.333 98.6667L103.667 98.3333z"/>
<path style="fill:#a2a2a2; stroke:none;" d="M105 98L105 99L120 99L105 98z"/>
<path style="fill:#626262; stroke:none;" d="M120 98L121 99L120 98z"/>
<path style="fill:#313131; stroke:none;" d="M121 98L122 99L121 98z"/>
<path style="fill:#a2a2a2; stroke:none;" d="M180 98L181 99L180 98z"/>
<path style="fill:#626262; stroke:none;" d="M43 99L44 100L43 99z"/>
<path style="fill:#313131; stroke:none;" d="M96 99L97 100L96 99z"/>
<path style="fill:#626262; stroke:none;" d="M97 99L98 100L97 99z"/>
<path style="fill:#a2a2a2; stroke:none;" d="M98.6667 99.3333L99.3333 99.6667L98.6667 99.3333M125.667 99.3333L126.333 99.6667L125.667 99.3333z"/>
<path style="fill:#626262; stroke:none;" d="M127 99L128 100L127 99z"/>
<path style="fill:#313131; stroke:none;" d="M128 99L129 100L128 99z"/>
<path style="fill:#626262; stroke:none;" d="M181 99L182 100L181 99z"/>
<path style="fill:#313131; stroke:none;" d="M42 100L43 101L42 100z"/>
<path style="fill:#626262; stroke:none;" d="M92 100L93 101L92 100z"/>
<path style="fill:#a2a2a2; stroke:none;" d="M93 100L94 101L93 100M130.667 100.333L131.333 100.667L130.667 100.333z"/>
<path style="fill:#626262; stroke:none;" d="M132 100L133 101L132 100M182 100L183 101L182 100M88 101L89 102L88 101z"/>
<path style="fill:#a2a2a2; stroke:none;" d="M89 101L90 102L89 101M134.667 101.333L135.333 101.667L134.667 101.333z"/>
<path style="fill:#313131; stroke:none;" d="M136 101L137 102L136 101M183 101L184 102L183 101z"/>
<path style="fill:#626262; stroke:none;" d="M85 102L86 103L85 102z"/>
<path style="fill:#a2a2a2; stroke:none;" d="M86 102L87 103L86 102M138 102L139 103L138 102z"/>
<path style="fill:#313131; stroke:none;" d="M139 102L140 103L139 102z"/>
<path style="fill:#a2a2a2; stroke:none;" d="M38 103L39 104L38 103z"/>
<path style="fill:#313131; stroke:none;" d="M82 103L83 104L82 103z"/>
<path style="fill:#a2a2a2; stroke:none;" d="M83 103L84 104L83 103M141 103L142 104L141 103M37 104L38 105L37 104z"/>
<path style="fill:#626262; stroke:none;" d="M80 104L81 105L80 104z"/>
<path style="fill:#a2a2a2; stroke:none;" d="M143 104L144 105L143 104z"/>
<path style="fill:#626262; stroke:none;" d="M144 104L145 105L144 104z"/>
<path style="fill:#a2a2a2; stroke:none;" d="M36 105L37 106L36 105M78 105L79 106L78 105M146 105L147 106L146 105z"/>
<path style="fill:#313131; stroke:none;" d="M75 106L76 107L75 106z"/>
<path style="fill:#a2a2a2; stroke:none;" d="M76 106L77 107L76 106M148 106L149 107L148 106z"/>
<path style="fill:#313131; stroke:none;" d="M73 107L74 108L73 107z"/>
<path style="fill:#a2a2a2; stroke:none;" d="M74 107L75 108L74 107M150 107L151 108L150 107z"/>
<path style="fill:#313131; stroke:none;" d="M189 107L190 108L189 107z"/>
<path style="fill:#a2a2a2; stroke:none;" d="M34 108L35 109L34 108M72 108L73 109L72 108M152 108L153 109L152 108M190 108L191 109L190 108z"/>
<path style="fill:#626262; stroke:none;" d="M70 109L71 110L70 109M154 109L155 110L154 109z"/>
<path style="fill:#a2a2a2; stroke:none;" d="M33 110L34 111L33 110z"/>
<path style="fill:#313131; stroke:none;" d="M68 110L69 111L68 110z"/>
<path style="fill:#a2a2a2; stroke:none;" d="M155 110L156 111L155 110z"/>
<path style="fill:#313131; stroke:none;" d="M156 110L157 111L156 110z"/>
<path style="fill:#a2a2a2; stroke:none;" d="M191.333 110.667L191.667 111.333L191.333 110.667z"/>
<path style="fill:#626262; stroke:none;" d="M33 111L34 112L33 111z"/>
<path style="fill:#a2a2a2; stroke:none;" d="M67 111L68 112L67 111M157 111L158 112L157 111z"/>
<path style="fill:#313131; stroke:none;" d="M33 112L34 113L33 112z"/>
<path style="fill:#626262; stroke:none;" d="M65 112L66 113L65 112z"/>
<path style="fill:#313131; stroke:none;" d="M159 112L160 113L159 112z"/>
<path style="fill:#626262; stroke:none;" d="M191 112L192 113L191 112z"/>
<path style="fill:#a2a2a2; stroke:none;" d="M64 113L65 114L64 113M160 113L161 114L160 113z"/>
<path style="fill:#313131; stroke:none;" d="M191.333 113.667L191.667 114.333L191.333 113.667M33 115L34 116L33 115z"/>
<path style="fill:#626262; stroke:none;" d="M61 115L62 116L61 115M163 115L164 116L163 115M191.333 115.667L191.667 116.333L191.333 115.667M33 116L34 117L33 116z"/>
<path style="fill:#a2a2a2; stroke:none;" d="M60 116L61 117L60 116M164 116L165 117L164 116M33 117L34 118L33 117M59 117L60 118L59 117M165 117L166 118L165 117M191 117L192 118L191 117z"/>
<path style="fill:#626262; stroke:none;" d="M34 119L35 120L34 119z"/>
<path style="fill:#313131; stroke:none;" d="M56 119L57 120L56 119z"/>
<path style="fill:#a2a2a2; stroke:none;" d="M190 119L191 120L190 119z"/>
<path style="fill:#626262; stroke:none;" d="M55 120L56 121L55 120z"/>
<path style="fill:#a2a2a2; stroke:none;" d="M105 120L105 121L109 121L105 120z"/>
<path style="fill:#626262; stroke:none;" d="M109 120L109 121L116 121L109 120z"/>
<path style="fill:#a2a2a2; stroke:none;" d="M116 120L116 121L120 121L116 120z"/>
<path style="fill:#313131; stroke:none;" d="M169 120L170 121L169 120z"/>
<path style="fill:#a2a2a2; stroke:none;" d="M35 121L36 122L35 121z"/>
<path style="fill:#626262; stroke:none;" d="M54 121L55 122L54 121z"/>
<path style="fill:#a2a2a2; stroke:none;" d="M99.6667 121.333L100.333 121.667L99.6667 121.333z"/>
<path style="fill:#626262; stroke:none;" d="M101 121L102 122L101 121z"/>
<path style="fill:#010101; stroke:none;" d="M102 121.439C90.5775 123.237 76.9348 129.019 69.3943 138.09C64.7167 143.718 65.0091 153.089 72.0432 156.821C80.2687 161.185 86.7019 153.678 93 149.711C99.7898 145.434 108.002 143.315 116 144.174C128.193 145.483 138.335 159.846 149.999 157.771C164.882 155.124 157.287 139.112 149.996 133.286C136.721 122.678 118.69 118.812 102 121.439z"/>
<path style="fill:#626262; stroke:none;" d="M123 121L124 122L123 121z"/>
<path style="fill:#a2a2a2; stroke:none;" d="M124.667 121.333L125.333 121.667L124.667 121.333z"/>
<path style="fill:#313131; stroke:none;" d="M170 121L171 122L170 121z"/>
<path style="fill:#a2a2a2; stroke:none;" d="M189 121L190 122L189 121M36 122L37 123L36 122z"/>
<path style="fill:#626262; stroke:none;" d="M53 122L54 123L53 122z"/>
<path style="fill:#a2a2a2; stroke:none;" d="M95 122L96 123L95 122z"/>
<path style="fill:#626262; stroke:none;" d="M96 122L97 123L96 122M128 122L129 123L128 122z"/>
<path style="fill:#a2a2a2; stroke:none;" d="M129 122L130 123L129 122z"/>
<path style="fill:#626262; stroke:none;" d="M171 122L172 123L171 122z"/>
<path style="fill:#a2a2a2; stroke:none;" d="M188 122L189 123L188 122M37 123L38 124L37 123M52 123L53 124L52 123M92 123L93 124L92 123z"/>
<path style="fill:#313131; stroke:none;" d="M93 123L94 124L93 123z"/>
<path style="fill:#626262; stroke:none;" d="M131 123L132 124L131 123z"/>
<path style="fill:#a2a2a2; stroke:none;" d="M132 123L133 124L132 123z"/>
<path style="fill:#626262; stroke:none;" d="M172 123L173 124L172 123z"/>
<path style="fill:#a2a2a2; stroke:none;" d="M187 123L188 124L187 123z"/>
<path style="fill:#626262; stroke:none;" d="M39 124L40 125L39 124z"/>
<path style="fill:#313131; stroke:none;" d="M50 124L51 125L50 124z"/>
<path style="fill:#a2a2a2; stroke:none;" d="M89 124L90 125L89 124z"/>
<path style="fill:#626262; stroke:none;" d="M90 124L91 125L90 124M134 124L135 125L134 124z"/>
<path style="fill:#a2a2a2; stroke:none;" d="M173 124L174 125L173 124z"/>
<path style="fill:#313131; stroke:none;" d="M174 124L175 125L174 124z"/>
<path style="fill:#626262; stroke:none;" d="M185 124L186 125L185 124z"/>
<path style="fill:#a2a2a2; stroke:none;" d="M41 125L42 126L41 125z"/>
<path style="fill:#313131; stroke:none;" d="M42 125L43 126L42 125z"/>
<path style="fill:#626262; stroke:none;" d="M48 125L49 126L48 125z"/>
<path style="fill:#a2a2a2; stroke:none;" d="M87 125L88 126L87 125z"/>
<path style="fill:#313131; stroke:none;" d="M88 125L89 126L88 125M136 125L137 126L136 125z"/>
<path style="fill:#a2a2a2; stroke:none;" d="M137 125L138 126L137 125M175 125L176 126L175 125z"/>
<path style="fill:#626262; stroke:none;" d="M176 125L177 126L176 125z"/>
<path style="fill:#313131; stroke:none;" d="M182 125L183 126L182 125z"/>
<path style="fill:#a2a2a2; stroke:none;" d="M183 125L184 126L183 125M85 126L86 127L85 126M139 126L140 127L139 126M83 127L84 128L83 127M141 127L142 128L141 127M81 128L82 129L81 128M143 128L144 129L143 128z"/>
<path style="fill:#313131; stroke:none;" d="M80 129L81 130L80 129z"/>
<path style="fill:#626262; stroke:none;" d="M144 129L145 130L144 129z"/>
<path style="fill:#a2a2a2; stroke:none;" d="M78 130L79 131L78 130M146 130L147 131L146 130z"/>
<path style="fill:#313131; stroke:none;" d="M77 131L78 132L77 131z"/>
<path style="fill:#626262; stroke:none;" d="M147 131L148 132L147 131z"/>
<path style="fill:#a2a2a2; stroke:none;" d="M75 132L76 133L75 132z"/>
<path style="fill:#626262; stroke:none;" d="M74 133L75 134L74 133z"/>
<path style="fill:#a2a2a2; stroke:none;" d="M150 133L151 134L150 133z"/>
<path style="fill:#313131; stroke:none;" d="M73 134L74 135L73 134z"/>
<path style="fill:#626262; stroke:none;" d="M151 134L152 135L151 134z"/>
<path style="fill:#313131; stroke:none;" d="M152 135L153 136L152 135M153 136L154 137L153 136M156 139L157 140L156 139z"/>
<path style="fill:#626262; stroke:none;" d="M67 140L68 141L67 140z"/>
<path style="fill:#a2a2a2; stroke:none;" d="M157 140L158 141L157 140z"/>
<path style="fill:#626262; stroke:none;" d="M66 142L67 143L66 142z"/>
<path style="fill:#a2a2a2; stroke:none;" d="M158 142L159 143L158 142z"/>
<path style="fill:#313131; stroke:none;" d="M158 143L159 144L158 143M105 144L106 145L105 144z"/>
<path style="fill:#626262; stroke:none;" d="M106.667 144.333L107.333 144.667L106.667 144.333z"/>
<path style="fill:#a2a2a2; stroke:none;" d="M108 144L108 145L112 145L108 144M113 144L113 145L117 145L113 144z"/>
<path style="fill:#626262; stroke:none;" d="M117.667 144.333L118.333 144.667L117.667 144.333z"/>
<path style="fill:#a2a2a2; stroke:none;" d="M65 145L65 148L66 148L65 145z"/>
<path style="fill:#626262; stroke:none;" d="M102 145L103 146L102 145z"/>
<path style="fill:#a2a2a2; stroke:none;" d="M103 145L104 146L103 145M121 145L122 146L121 145z"/>
<path style="fill:#626262; stroke:none;" d="M122 145L123 146L122 145z"/>
<path style="fill:#a2a2a2; stroke:none;" d="M99 146L100 147L99 146M124 146L125 147L124 146z"/>
<path style="fill:#626262; stroke:none;" d="M125 146L126 147L125 146z"/>
<path style="fill:#a2a2a2; stroke:none;" d="M159 146L160 147L159 146z"/>
<path style="fill:#313131; stroke:none;" d="M96 147L97 148L96 147z"/>
<path style="fill:#a2a2a2; stroke:none;" d="M97 147L98 148L97 147M127 147L128 148L127 147z"/>
<path style="fill:#313131; stroke:none;" d="M128 147L129 148L128 147M94 148L95 149L94 148z"/>
<path style="fill:#a2a2a2; stroke:none;" d="M95 148L96 149L95 148M129 148L130 149L129 148M93 149L94 150L93 149M131 149L132 150L131 149z"/>
<path style="fill:#626262; stroke:none;" d="M66 150L67 151L66 150M91 150L92 151L91 150M133 150L134 151L133 150M158 150L159 151L158 150z"/>
<path style="fill:#a2a2a2; stroke:none;" d="M66 151L67 152L66 151M90 151L91 152L90 151M134 151L135 152L134 151z"/>
<path style="fill:#313131; stroke:none;" d="M67 152L68 153L67 152M88 152L89 153L88 152M157 152L158 153L157 152M87 153L88 154L87 153z"/>
<path style="fill:#a2a2a2; stroke:none;" d="M68 154L69 155L68 154z"/>
<path style="fill:#313131; stroke:none;" d="M86 154L87 155L86 154M138 154L139 155L138 154z"/>
<path style="fill:#a2a2a2; stroke:none;" d="M156 154L157 155L156 154M69 155L70 156L69 155z"/>
<path style="fill:#626262; stroke:none;" d="M85 155L86 156L85 155z"/>
<path style="fill:#313131; stroke:none;" d="M139 155L140 156L139 155z"/>
<path style="fill:#a2a2a2; stroke:none;" d="M155 155L156 156L155 155M70 156L71 157L70 156M84 156L85 157L84 156z"/>
<path style="fill:#626262; stroke:none;" d="M140 156L141 157L140 156z"/>
<path style="fill:#a2a2a2; stroke:none;" d="M154 156L155 157L154 156M72 157L73 158L72 157z"/>
<path style="fill:#626262; stroke:none;" d="M82 157L83 158L82 157M142 157L143 158L142 157z"/>
<path style="fill:#a2a2a2; stroke:none;" d="M152 157L153 158L152 157M75 158L76 159L75 158z"/>
<path style="fill:#626262; stroke:none;" d="M76 158L76 159L79 159L76 158z"/>
<path style="fill:#a2a2a2; stroke:none;" d="M79.6667 158.333L80.3333 158.667L79.6667 158.333M144.667 158.333L145.333 158.667L144.667 158.333z"/>
<path style="fill:#626262; stroke:none;" d="M146 158L146 159L149 159L146 158z"/>
<path style="fill:#a2a2a2; stroke:none;" d="M149.667 158.333L150.333 158.667L149.667 158.333M109 165L109 166L115 166L109 165M106 166L107 167L106 166z"/>
<path style="fill:#626262; stroke:none;" d="M107 166L108 167L107 166z"/>
<path style="fill:#010101; stroke:none;" d="M108 166.558C88.5747 171.655 97.4054 201.584 117 196.442C136.34 191.367 127.476 161.448 108 166.558z"/>
<path style="fill:#626262; stroke:none;" d="M117 166L118 167L117 166z"/>
<path style="fill:#a2a2a2; stroke:none;" d="M118 166L119 167L118 166M104 167L105 168L104 167z"/>
<path style="fill:#313131; stroke:none;" d="M119 167L120 168L119 167z"/>
<path style="fill:#a2a2a2; stroke:none;" d="M120 167L121 168L120 167z"/>
<path style="fill:#626262; stroke:none;" d="M103 168L104 169L103 168M121 168L122 169L121 168z"/>
<path style="fill:#313131; stroke:none;" d="M99 172L100 173L99 172z"/>
<path style="fill:#626262; stroke:none;" d="M125 172L126 173L125 172z"/>
<path style="fill:#a2a2a2; stroke:none;" d="M98 173L99 174L98 173M126 173L127 174L126 173z"/>
<path style="fill:#313131; stroke:none;" d="M126 174L127 175L126 174z"/>
<path style="fill:#a2a2a2; stroke:none;" d="M97 175L98 176L97 175M127 175L128 176L127 175z"/>
<path style="fill:#313131; stroke:none;" d="M97 176L98 177L97 176z"/>
<path style="fill:#626262; stroke:none;" d="M127 176L128 177L127 176z"/>
<path style="fill:#a2a2a2; stroke:none;" d="M96 178L96 185L97 185L96 178M128 179L128 184L129 184L128 179z"/>
<path style="fill:#313131; stroke:none;" d="M97 186L98 187L97 186z"/>
<path style="fill:#626262; stroke:none;" d="M127 186L128 187L127 186z"/>
<path style="fill:#a2a2a2; stroke:none;" d="M97 187L98 188L97 187M127 187L128 188L127 187z"/>
<path style="fill:#313131; stroke:none;" d="M126 188L127 189L126 188z"/>
<path style="fill:#a2a2a2; stroke:none;" d="M98 189L99 190L98 189M126 189L127 190L126 189z"/>
<path style="fill:#313131; stroke:none;" d="M99 190L100 191L99 190z"/>
<path style="fill:#626262; stroke:none;" d="M125 190L126 191L125 190z"/>
<path style="fill:#313131; stroke:none;" d="M103 194L104 195L103 194z"/>
<path style="fill:#626262; stroke:none;" d="M121 194L122 195L121 194z"/>
<path style="fill:#a2a2a2; stroke:none;" d="M104 195L105 196L104 195M120 195L121 196L120 195M106 196L107 197L106 196z"/>
<path style="fill:#313131; stroke:none;" d="M107 196L108 197L107 196M117 196L118 197L117 196z"/>
<path style="fill:#a2a2a2; stroke:none;" d="M118 196L119 197L118 196M109 197L109 198L116 198L109 197z"/>
</svg>
